<?xml version="1.0" encoding="utf-8"?>
<!-- Generator: Adobe Illustrator 13.0.0, SVG Export Plug-In . SVG Version: 6.00 Build 14576)  -->
<!DOCTYPE svg PUBLIC "-//W3C//DTD SVG 1.1//EN" "http://www.w3.org/Graphics/SVG/1.1/DTD/svg11.dtd">
<svg version="1.1" id="Layer_1" xmlns="http://www.w3.org/2000/svg" xmlns:xlink="http://www.w3.org/1999/xlink" x="0px" y="0px"
	 width="55px" height="55px" viewBox="0 0 55 55" enable-background="new 0 0 55 55" xml:space="preserve">
<circle fill="#808284" cx="27.501" cy="27.408" r="22.5"/>
<circle fill="none" stroke="#4C4D4F" stroke-width="2.25" cx="27.499" cy="27.5" r="21.572"/>
<g enable-background="new    ">
	<path fill="#FFFFFF" d="M23.575,30.818c0.486,0.252,1.604,0.72,2.72,0.72c1.423,0,2.143-0.684,2.143-1.565
		c0-1.152-1.152-1.674-2.358-1.674h-1.116v-1.963h1.062c0.918-0.02,2.088-0.36,2.088-1.352c0-0.702-0.576-1.224-1.728-1.224
		c-0.955,0-1.962,0.414-2.449,0.702l-0.558-1.981c0.701-0.45,2.105-0.882,3.618-0.882c2.502,0,3.89,1.313,3.89,2.917
		c0,1.242-0.702,2.215-2.144,2.719v0.036c1.404,0.252,2.539,1.314,2.539,2.845c0,2.07-1.818,3.583-4.79,3.583
		c-1.512,0-2.791-0.396-3.475-0.828L23.575,30.818z"/>
</g>
</svg>
