<?xml version="1.0" encoding="utf-8"?>
<!-- Generator: Adobe Illustrator 13.0.0, SVG Export Plug-In . SVG Version: 6.00 Build 14576)  -->
<!DOCTYPE svg PUBLIC "-//W3C//DTD SVG 1.1//EN" "http://www.w3.org/Graphics/SVG/1.1/DTD/svg11.dtd">
<svg version="1.1" id="Layer_1" xmlns="http://www.w3.org/2000/svg" xmlns:xlink="http://www.w3.org/1999/xlink" x="0px" y="0px"
	 width="22px" height="22px" viewBox="0 0 22 22" enable-background="new 0 0 22 22" xml:space="preserve">
<rect x="1" y="1" fill="#FFFFFF" stroke="#000000" stroke-width="2" width="20" height="20"/>
<g>
	<path d="M17.021,6.637c0.312,0,0.624,0.048,0.96,0.143c0.144,0.048,0.264,0.12,0.264,0.191c0,0.071-0.048,0.119-0.192,0.143
		c-0.288,0.024-0.695,0.215-0.912,0.358c-1.68,1.002-6.192,4.701-9.264,7.947c-0.288,0.286-0.625,0.215-0.576,0.047
		c0.168-0.501,0.312-2.911,0.096-4.009c-0.048-0.286-0.216-0.597-0.672-0.549c-0.144,0.024-0.288,0.024-0.288-0.072
		c0-0.071,0.12-0.143,0.264-0.191c0.312-0.119,0.744-0.167,0.96-0.167c0.528,0,1.056,0.143,1.176,0.668
		c0.192,0.788-0.024,2.171-1.008,4.033c2.472-3.604,4.896-6.3,6.528-7.469C15.028,7.234,16.156,6.637,17.021,6.637z"/>
</g>
</svg>
