<?xml version="1.0" encoding="utf-8"?>
<!-- Generator: Adobe Illustrator 13.0.0, SVG Export Plug-In . SVG Version: 6.00 Build 14576)  -->
<!DOCTYPE svg PUBLIC "-//W3C//DTD SVG 1.1//EN" "http://www.w3.org/Graphics/SVG/1.1/DTD/svg11.dtd">
<svg version="1.1" id="Layer_1" xmlns="http://www.w3.org/2000/svg" xmlns:xlink="http://www.w3.org/1999/xlink" x="0px" y="0px"
	 width="80px" height="80px" viewBox="0 0 80 80" enable-background="new 0 0 80 80" xml:space="preserve">
<g>
	<path fill="#3399FF" stroke="#333333" stroke-linecap="round" stroke-linejoin="round" d="M5.598,23.098
		c0-9.332,7.571-16.902,16.902-16.902h33.805c9.332,0,16.889,7.571,16.889,16.902v33.806c0,9.33-7.557,16.9-16.889,16.9H22.5
		c-9.332,0-16.902-7.57-16.902-16.9V23.098z"/>
</g>
<path fill="#F5D04E" stroke="#333333" stroke-linecap="round" stroke-linejoin="round" d="M68,20.5c0-2.869,2.326-5.195,5.193-5.195
	c2.882,0,5.209,2.327,5.209,5.195s-2.327,5.194-5.209,5.194C70.326,25.695,68,23.369,68,20.5z"/>
<path fill="#F5D04E" stroke="#333333" stroke-linecap="round" stroke-linejoin="round" d="M68,33.5c0-2.869,2.326-5.195,5.193-5.195
	c2.882,0,5.209,2.327,5.209,5.195s-2.327,5.194-5.209,5.194C70.326,38.695,68,36.368,68,33.5z"/>
<path fill="#F5D04E" stroke="#333333" stroke-linecap="round" stroke-linejoin="round" d="M68,46.499
	c0-2.867,2.326-5.192,5.193-5.192c2.882,0,5.209,2.325,5.209,5.192c0,2.868-2.327,5.196-5.209,5.196
	C70.326,51.695,68,49.367,68,46.499z"/>
<path fill="#F5D04E" stroke="#333333" stroke-linecap="round" stroke-linejoin="round" d="M68,59.5c0-2.869,2.326-5.195,5.193-5.195
	c2.882,0,5.209,2.326,5.209,5.195c0,2.868-2.327,5.195-5.209,5.195C70.326,64.695,68,62.368,68,59.5z"/>
<path fill="#DF0040" stroke="#333333" stroke-linecap="round" stroke-linejoin="round" d="M34.299,6.195
	C34.299,3.327,36.638,1,39.507,1c2.868,0,5.194,2.327,5.194,5.195c0,2.88-2.326,5.208-5.194,5.208
	C36.638,11.403,34.299,9.076,34.299,6.195z"/>
<path fill="#DF0040" stroke="#333333" stroke-linecap="round" stroke-linejoin="round" d="M34.299,73.805
	c0-2.881,2.339-5.207,5.208-5.207c2.868,0,5.194,2.326,5.194,5.207c0,2.868-2.326,5.194-5.194,5.194
	C36.638,78.999,34.299,76.673,34.299,73.805z"/>
<line fill="none" stroke="#333333" stroke-linecap="square" stroke-linejoin="round" x1="16.054" y1="59.664" x2="61.054" y2="59.664"/>
<linearGradient id="SVGID_1_" gradientUnits="userSpaceOnUse" x1="24.2217" y1="39.0078" x2="54.2217" y2="39.0078">
	<stop  offset="0" style="stop-color:#FFFFFF"/>
	<stop  offset="0.0799" style="stop-color:#DBDBDB"/>
	<stop  offset="0.2375" style="stop-color:#999999"/>
	<stop  offset="0.3876" style="stop-color:#636363"/>
	<stop  offset="0.526" style="stop-color:#383838"/>
	<stop  offset="0.6501" style="stop-color:#191919"/>
	<stop  offset="0.7555" style="stop-color:#070707"/>
	<stop  offset="0.8297" style="stop-color:#000000"/>
</linearGradient>
<path fill-rule="evenodd" clip-rule="evenodd" fill="url(#SVGID_1_)" stroke="#000000" d="M24.222,38.996
	c0-8.283,6.707-14.987,14.987-14.987c8.311,0,15.013,6.704,15.013,14.987c0,8.307-6.702,15.011-15.013,15.011
	C30.928,54.007,24.222,47.303,24.222,38.996z"/>
</svg>
