<?xml version="1.0" encoding="utf-8"?>
<!-- Generator: Adobe Illustrator 13.0.0, SVG Export Plug-In . SVG Version: 6.00 Build 14576)  -->
<!DOCTYPE svg PUBLIC "-//W3C//DTD SVG 1.1//EN" "http://www.w3.org/Graphics/SVG/1.1/DTD/svg11.dtd">
<svg version="1.1" id="Layer_1" xmlns="http://www.w3.org/2000/svg" xmlns:xlink="http://www.w3.org/1999/xlink" x="0px" y="0px"
	 width="56.688px" height="55.5px" viewBox="0 0 56.688 55.5" enable-background="new 0 0 56.688 55.5" xml:space="preserve">
<path fill="none" stroke="#FFFFFF" stroke-width="2" stroke-linecap="round" stroke-linejoin="round" d="M24.16,18.908
	c-0.114-3.243-0.215-6.109-0.215-6.109c-0.092-2.796,2.098-5.14,4.893-5.24l15.199-0.534c2.796-0.094,5.139,2.096,5.239,4.89
	l0.535,15.2c0.092,2.797-2.099,5.14-4.891,5.241c0,0-4.982,0.175-9.242,0.324"/>
<path fill="#CCCCCC" stroke="#CCCCCC" stroke-width="2" stroke-linecap="round" stroke-linejoin="round" d="M43.166,23.722
	c1.198-0.038,2.206,0.891,2.249,2.098c0.038,1.2-0.895,2.2-2.098,2.249c-1.198,0.039-2.204-0.902-2.242-2.101
	C41.03,24.771,41.967,23.761,43.166,23.722z"/>
<path fill="#CCCCCC" stroke="#CCCCCC" stroke-width="2" stroke-linecap="round" stroke-linejoin="round" d="M37.176,18.138
	c1.195-0.046,2.207,0.891,2.245,2.09c0.039,1.199-0.892,2.207-2.097,2.248c-1.199,0.038-2.199-0.894-2.242-2.101
	C35.037,19.181,35.978,18.176,37.176,18.138z"/>
<path fill="#CCCCCC" stroke="#CCCCCC" stroke-width="2" stroke-linecap="round" stroke-linejoin="round" d="M31.183,12.547
	c1.199-0.038,2.21,0.898,2.249,2.098c0.038,1.199-0.895,2.2-2.098,2.249c-1.197,0.038-2.202-0.902-2.239-2.101
	C29.047,13.596,29.985,12.585,31.183,12.547z"/>
<path fill="none" stroke="#FFFFFF" stroke-width="2" stroke-linecap="round" stroke-linejoin="round" d="M34.215,22.64l3.301,16.967
	c0.608,3.117-1.432,6.146-4.551,6.746l-16.967,3.299c-3.119,0.609-6.146-1.432-6.748-4.549L5.951,28.136
	c-0.609-3.118,1.432-6.146,4.551-6.747l16.966-3.3C30.587,17.48,33.615,19.521,34.215,22.64z"/>
<path fill="#CCCCCC" stroke="#CCCCCC" stroke-width="2" stroke-linecap="round" stroke-linejoin="round" d="M26.95,24.054
	c1.341-0.263,2.633,0.617,2.896,1.95c0.255,1.341-0.617,2.633-1.951,2.896c-1.341,0.264-2.641-0.617-2.896-1.95
	C24.737,25.609,25.61,24.318,26.95,24.054z"/>
<path fill="#CCCCCC" stroke="#CCCCCC" stroke-width="2" stroke-linecap="round" stroke-linejoin="round" d="M29.461,36.98
	c1.341-0.264,2.632,0.608,2.896,1.949c0.265,1.342-0.616,2.635-1.949,2.896c-1.342,0.255-2.634-0.617-2.896-1.958
	C27.247,38.536,28.128,37.236,29.461,36.98z"/>
<path fill="#CCCCCC" stroke="#CCCCCC" stroke-width="2" stroke-linecap="round" stroke-linejoin="round" d="M16.542,39.491
	c1.333-0.265,2.633,0.616,2.888,1.95c0.264,1.342-0.609,2.634-1.95,2.896c-1.333,0.264-2.633-0.617-2.896-1.951
	C14.328,41.046,15.201,39.753,16.542,39.491z"/>
<path fill="#CCCCCC" stroke="#CCCCCC" stroke-width="2" stroke-linecap="round" stroke-linejoin="round" d="M21.741,31.773
	c1.342-0.265,2.633,0.617,2.896,1.949c0.264,1.342-0.609,2.633-1.95,2.896c-1.341,0.263-2.633-0.617-2.896-1.95
	C19.537,33.327,20.41,32.036,21.741,31.773z"/>
<path fill="#CCCCCC" stroke="#CCCCCC" stroke-width="2" stroke-linecap="round" stroke-linejoin="round" d="M14.023,26.564
	c1.342-0.255,2.642,0.617,2.897,1.958c0.263,1.334-0.609,2.633-1.95,2.889c-1.341,0.264-2.633-0.609-2.896-1.949
	C11.819,28.119,12.69,26.827,14.023,26.564z"/>
</svg>
