<?xml version="1.0" encoding="utf-8"?>
<!-- Generator: Adobe Illustrator 13.0.0, SVG Export Plug-In . SVG Version: 6.00 Build 14576)  -->
<!DOCTYPE svg PUBLIC "-//W3C//DTD SVG 1.1//EN" "http://www.w3.org/Graphics/SVG/1.1/DTD/svg11.dtd">
<svg version="1.1" id="Layer_1" xmlns="http://www.w3.org/2000/svg" xmlns:xlink="http://www.w3.org/1999/xlink" x="0px" y="0px"
	 width="75px" height="30px" viewBox="0 0 75 30" enable-background="new 0 0 75 30" xml:space="preserve">
<rect x="15.833" y="0.667" fill="#7D7D7D" stroke="#7D7D7D" stroke-width="0.25" stroke-linecap="round" stroke-linejoin="round" width="44.333" height="25.833"/>
<line fill="none" stroke="#FFFFFF" stroke-width="2" stroke-linecap="round" stroke-linejoin="round" x1="60" y1="0.97" x2="60" y2="25.97"/>
<line fill="none" stroke="#FFFFFF" stroke-width="2" stroke-linecap="round" stroke-linejoin="round" x1="15.51" y1="25.97" x2="15.51" y2="-0.03"/>
<line fill="none" stroke="#FFFFFF" stroke-width="2" stroke-linecap="round" stroke-linejoin="round" x1="42.204" y1="1.303" x2="42.204" y2="26.304"/>
<line fill="none" stroke="#FFFFFF" stroke-width="2" stroke-linecap="round" stroke-linejoin="round" x1="24.408" y1="26.637" x2="24.408" y2="0.636"/>
<line fill="none" stroke="#FFFFFF" stroke-width="2" stroke-linecap="round" stroke-linejoin="round" x1="51.102" y1="1.303" x2="51.102" y2="26.304"/>
<line fill="none" stroke="#FFFFFF" stroke-width="2" stroke-linecap="round" stroke-linejoin="round" x1="33.306" y1="26.637" x2="33.306" y2="0.636"/>
<line fill="none" stroke="#FFFFFF" stroke-width="2" stroke-linecap="round" stroke-linejoin="round" x1="59.66" y1="26.63" x2="15" y2="26.63"/>
<line fill="none" stroke="#FFFFFF" stroke-width="2" stroke-linecap="round" stroke-linejoin="round" x1="60.493" y1="0.463" x2="15.833" y2="0.463"/>
<g>
	<g>
		<line fill="#808292" x1="43.584" y1="12.999" x2="53.001" y2="22.5"/>
		<polygon fill="#808292" points="47.04,12.54 44.236,13.657 43.094,16.45 40.433,9.82 		"/>
	</g>
	<g>
		
			<line fill="none" stroke="#323232" stroke-width="3" stroke-linecap="round" stroke-linejoin="round" x1="43.584" y1="12.999" x2="53.001" y2="22.5"/>
		<polygon fill="#323232" points="53.952,11.62 45.541,14.973 42.114,23.354 34.13,3.461 		"/>
	</g>
</g>
</svg>
