<?xml version="1.0" encoding="utf-8"?>
<!-- Generator: Adobe Illustrator 13.0.0, SVG Export Plug-In . SVG Version: 6.00 Build 14576)  -->
<!DOCTYPE svg PUBLIC "-//W3C//DTD SVG 1.1//EN" "http://www.w3.org/Graphics/SVG/1.1/DTD/svg11.dtd">
<svg version="1.1" id="Layer_1" xmlns="http://www.w3.org/2000/svg" xmlns:xlink="http://www.w3.org/1999/xlink" x="0px" y="0px"
	 width="56.688px" height="55.499px" viewBox="0 0 56.688 55.499" enable-background="new 0 0 56.688 55.499" xml:space="preserve">
<g>
	
		<path fill-rule="evenodd" clip-rule="evenodd" fill="#666666" stroke="#FFFFFF" stroke-width="2" stroke-linecap="round" stroke-linejoin="round" d="
		M55.24,16.389l-6.92,17.14c-1.28,3.15-4.87,4.67-8.02,3.4l-17.14-6.92c-3.15-1.28-4.67-4.87-3.4-8.02l6.92-17.14
		c1.28-3.15,4.87-4.67,8.02-3.4l17.14,6.92C54.99,9.648,56.51,13.238,55.24,16.389z"/>
	
		<path fill-rule="evenodd" clip-rule="evenodd" fill="#CCCCCC" stroke="#CCCCCC" stroke-width="2" stroke-linecap="round" stroke-linejoin="round" d="
		M42.62,26.479c1.35,0.55,2.01,2.08,1.46,3.44c-0.55,1.35-2.08,2-3.44,1.46c-1.35-0.55-2-2.09-1.45-3.44
		C39.73,26.588,41.27,25.929,42.62,26.479z"/>
	
		<path fill-rule="evenodd" clip-rule="evenodd" fill="#CCCCCC" stroke="#CCCCCC" stroke-width="2" stroke-linecap="round" stroke-linejoin="round" d="
		M38.73,17.318c1.35,0.54,2.01,2.08,1.46,3.43c-0.55,1.35-2.08,2.01-3.44,1.46c-1.35-0.55-2-2.08-1.45-3.44
		C35.84,17.418,37.38,16.769,38.73,17.318z"/>
	
		<path fill-rule="evenodd" clip-rule="evenodd" fill="#CCCCCC" stroke="#CCCCCC" stroke-width="2" stroke-linecap="round" stroke-linejoin="round" d="
		M34.84,8.148c1.35,0.55,2.01,2.09,1.46,3.44c-0.55,1.35-2.08,2-3.44,1.46c-1.35-0.55-2-2.09-1.45-3.44
		C31.95,8.258,33.49,7.599,34.84,8.148z"/>
</g>
<g>
	
		<path fill-rule="evenodd" clip-rule="evenodd" fill="#666666" stroke="#FFFFFF" stroke-width="2" stroke-linecap="round" stroke-linejoin="round" d="
		M35.48,21.539l4.01,20.62c0.74,3.79-1.74,7.47-5.53,8.2l-20.62,4.01c-3.79,0.74-7.47-1.74-8.2-5.53l-4.01-20.62
		c-0.74-3.79,1.74-7.47,5.53-8.2l20.62-4.01C31.07,15.269,34.75,17.749,35.48,21.539z"/>
	
		<path fill-rule="evenodd" clip-rule="evenodd" fill="#CCCCCC" stroke="#CCCCCC" stroke-width="2" stroke-linecap="round" stroke-linejoin="round" d="
		M26.65,23.258c1.63-0.32,3.2,0.75,3.52,2.37c0.31,1.63-0.75,3.2-2.37,3.52c-1.63,0.32-3.21-0.75-3.52-2.37
		C23.96,25.148,25.021,23.579,26.65,23.258z"/>
	
		<path fill-rule="evenodd" clip-rule="evenodd" fill="#CCCCCC" stroke="#CCCCCC" stroke-width="2" stroke-linecap="round" stroke-linejoin="round" d="
		M29.701,38.968c1.63-0.32,3.2,0.74,3.52,2.37c0.32,1.63-0.75,3.2-2.37,3.52c-1.63,0.31-3.2-0.75-3.52-2.38
		C27.011,40.858,28.081,39.278,29.701,38.968z"/>
	
		<path fill-rule="evenodd" clip-rule="evenodd" fill="#CCCCCC" stroke="#CCCCCC" stroke-width="2" stroke-linecap="round" stroke-linejoin="round" d="
		M14,42.019c1.62-0.32,3.2,0.75,3.51,2.37c0.32,1.63-0.74,3.2-2.37,3.52c-1.62,0.32-3.2-0.75-3.52-2.37
		C11.311,43.909,12.371,42.338,14,42.019z"/>
	
		<path fill-rule="evenodd" clip-rule="evenodd" fill="#CCCCCC" stroke="#CCCCCC" stroke-width="2" stroke-linecap="round" stroke-linejoin="round" d="
		M20.32,32.639c1.63-0.32,3.2,0.75,3.52,2.37c0.32,1.63-0.74,3.2-2.37,3.52c-1.63,0.32-3.2-0.75-3.52-2.37
		C17.641,34.528,18.701,32.958,20.32,32.639z"/>
	
		<path fill-rule="evenodd" clip-rule="evenodd" fill="#CCCCCC" stroke="#CCCCCC" stroke-width="2" stroke-linecap="round" stroke-linejoin="round" d="
		M10.94,26.309c1.63-0.31,3.21,0.75,3.52,2.38c0.32,1.62-0.74,3.2-2.37,3.51c-1.63,0.32-3.2-0.74-3.52-2.37
		C8.261,28.198,9.32,26.628,10.94,26.309z"/>
</g>
</svg>
