<?xml version="1.0" encoding="utf-8"?>
<!-- Generator: Adobe Illustrator 13.0.0, SVG Export Plug-In . SVG Version: 6.00 Build 14576)  -->
<!DOCTYPE svg PUBLIC "-//W3C//DTD SVG 1.1//EN" "http://www.w3.org/Graphics/SVG/1.1/DTD/svg11.dtd">
<svg version="1.1" id="Layer_1" xmlns="http://www.w3.org/2000/svg" xmlns:xlink="http://www.w3.org/1999/xlink" x="0px" y="0px"
	 width="56.688px" height="55.5px" viewBox="0 0 56.688 55.5" enable-background="new 0 0 56.688 55.5" xml:space="preserve">
<path fill="none" stroke="#FFFFFF" stroke-width="2" stroke-linecap="round" stroke-linejoin="round" d="M12.181,34.714
	c-3.849-0.018-6.96-2.285-6.963-5.07L5.212,14.435c0.007-2.798,3.142-5.063,7.002-5.066l20.997-0.004
	c3.863,0.004,6.99,2.275,6.995,5.071c0,0,0,0.778,0.001,1.982"/>
<path fill="none" stroke="#FFFFFF" stroke-width="2" stroke-linecap="round" stroke-linejoin="round" d="M19.893,17.309
	l24.013-0.002c4.408-0.002,7.998,2.578,7.993,5.754v17.284c0.005,3.18-3.58,5.762-7.991,5.758H19.896
	c-4.414,0.002-8.002-2.578-7.996-5.754L11.9,23.064C11.897,19.886,15.482,17.303,19.893,17.309z"/>
<line fill="none" stroke="#FFFFFF" stroke-width="3" stroke-linecap="round" stroke-linejoin="bevel" x1="31.678" y1="25.667" x2="31.844" y2="37.667"/>
<line fill="none" stroke="#FFFFFF" stroke-width="3" stroke-linecap="round" stroke-linejoin="bevel" x1="25.844" y1="31.417" x2="37.844" y2="31.417"/>
</svg>
