<?xml version="1.0" encoding="utf-8"?>
<!-- Generator: Adobe Illustrator 13.0.0, SVG Export Plug-In . SVG Version: 6.00 Build 14576)  -->
<!DOCTYPE svg PUBLIC "-//W3C//DTD SVG 1.1//EN" "http://www.w3.org/Graphics/SVG/1.1/DTD/svg11.dtd">
<svg version="1.1" id="Layer_1" xmlns="http://www.w3.org/2000/svg" xmlns:xlink="http://www.w3.org/1999/xlink" x="0px" y="0px"
	 width="75px" height="30px" viewBox="0 0 75 30" enable-background="new 0 0 75 30" xml:space="preserve">
<line fill="none" stroke="#FFFFFF" stroke-width="2" stroke-linecap="round" stroke-linejoin="round" x1="60" y1="0.97" x2="60" y2="25.97"/>
<line fill="none" stroke="#FFFFFF" stroke-width="2" stroke-linecap="round" stroke-linejoin="round" x1="15.51" y1="25.97" x2="15.51" y2="-0.03"/>
<line fill="none" stroke="#FFFFFF" stroke-width="2" stroke-linecap="round" stroke-linejoin="round" x1="42.204" y1="1.303" x2="42.204" y2="26.304"/>
<line fill="none" stroke="#FFFFFF" stroke-width="2" stroke-linecap="round" stroke-linejoin="round" x1="24.408" y1="26.637" x2="24.408" y2="0.636"/>
<line fill="none" stroke="#FFFFFF" stroke-width="2" stroke-linecap="round" stroke-linejoin="round" x1="51.102" y1="1.303" x2="51.102" y2="26.304"/>
<line fill="none" stroke="#FFFFFF" stroke-width="2" stroke-linecap="round" stroke-linejoin="round" x1="33.306" y1="26.637" x2="33.306" y2="0.636"/>
<line fill="none" stroke="#FFFFFF" stroke-width="2" stroke-linecap="round" stroke-linejoin="round" x1="59.66" y1="26.63" x2="15" y2="26.63"/>
<line fill="none" stroke="#FFFFFF" stroke-width="2" stroke-linecap="round" stroke-linejoin="round" x1="60.493" y1="0.463" x2="15.833" y2="0.463"/>
<g>
	<g>
		<line fill="#808292" x1="45.25" y1="14.833" x2="54.667" y2="24.333"/>
		<polygon fill="#808292" points="42.765,12.325 47.711,14.428 45.436,15.02 44.824,17.289 		"/>
	</g>
	<g>
		
			<line fill="none" stroke="#969696" stroke-width="3" stroke-linecap="round" stroke-linejoin="round" x1="45.25" y1="14.833" x2="54.667" y2="24.333"/>
		<polygon fill="#969696" points="37.794,7.311 52.632,13.619 45.808,15.396 43.972,22.203 		"/>
	</g>
</g>
</svg>
