<?xml version="1.0" encoding="UTF-8" standalone="no"?>
<!-- Created with Inkscape (http://www.inkscape.org/) -->

<svg
   xmlns:dc="http://purl.org/dc/elements/1.1/"
   xmlns:cc="http://creativecommons.org/ns#"
   xmlns:rdf="http://www.w3.org/1999/02/22-rdf-syntax-ns#"
   xmlns:svg="http://www.w3.org/2000/svg"
   xmlns="http://www.w3.org/2000/svg"
   version="1.1"
   width="55"
   height="55"
   viewBox="0 0 55 55"
   id="Layer_1"
   xml:space="preserve"><metadata
   id="metadata4307"><rdf:RDF><cc:Work
       rdf:about=""><dc:format>image/svg+xml</dc:format><dc:type
         rdf:resource="http://purl.org/dc/dcmitype/StillImage" /><dc:title></dc:title></cc:Work></rdf:RDF></metadata><defs
   id="defs4305" />
<rect
   width="48.088272"
   height="48.088272"
   ry="5.5984559"
   x="3.455864"
   y="3.455864"
   id="rect3021"
   style="fill:none;stroke:#ffffff;stroke-width:2.5;stroke-linecap:butt;stroke-linejoin:miter;stroke-miterlimit:4;stroke-opacity:1;stroke-dasharray:none" />


<g
   transform="translate(-12,4)"
   id="g4151"><path
     d="M 27.121233,15.107873 H 40.81875 c 0.297292,0 0.539423,0.242131 0.539423,0.540585 v 0.910458 c 0,0.297292 -0.242131,0.540004 -0.539423,0.540004 H 27.121233 c -0.299034,0 -0.540584,-0.242131 -0.540584,-0.540004 v -0.909297 c 0,-0.299615 0.240969,-0.541746 0.540584,-0.541746 z"
     id="path8"
     style="fill:#ffffff;fill-opacity:1;stroke:#ffffff;stroke-width:1.16129851;stroke-linecap:round;stroke-linejoin:round;stroke-opacity:1" /><rect
     width="12.771381"
     height="8.5279961"
     x="27.58285"
     y="17.098921"
     id="rect10"
     style="fill:#ffffff;fill-opacity:0;stroke:#ffffff;stroke-width:1.16129851;stroke-linecap:round;stroke-linejoin:round;stroke-opacity:1" /><path
     d="M 27.121233,25.626335 H 40.81875 c 0.297292,0 0.539423,0.24155 0.539423,0.541165 v 0.909297 c 0,0.299034 -0.242131,0.542326 -0.539423,0.542326 H 27.121233 c -0.299034,0 -0.540584,-0.242131 -0.540584,-0.542326 V 26.1675 c 0,-0.297292 0.240969,-0.541165 0.540584,-0.541165 z"
     id="path17"
     style="fill:#ffffff;fill-opacity:1;stroke:#ffffff;stroke-width:1.16129851;stroke-linecap:round;stroke-linejoin:round;stroke-opacity:1" /><path
     d="m 27.58285,25.626335 3.292862,-8.527996 3.043183,8.526835 3.054215,-8.526835"
     id="path19"
     style="fill:#ffffff;fill-opacity:0;stroke:#ffffff;stroke-width:1.16129851;stroke-linecap:round;stroke-linejoin:round;stroke-opacity:1" /><path
     d="M 40.352488,25.626335 36.97311,17.098339"
     id="path21"
     style="fill:#ffffff;fill-opacity:0;stroke:#ffffff;stroke-width:1.16129851;stroke-linecap:round;stroke-linejoin:round;stroke-opacity:1" /><line
     y2="10.771585"
     x2="41.442364"
     y1="13.286958"
     x1="36.324524"
     id="line27"
     style="fill:none;stroke:#ffffff;stroke-width:1.16129851;stroke-linecap:round;stroke-linejoin:round;stroke-opacity:1" /><line
     y2="12.005465"
     x2="31.771652"
     y1="9.4662857"
     x1="26.664263"
     id="line29"
     style="fill:none;stroke:#ffffff;stroke-width:1.16129851;stroke-linecap:round;stroke-linejoin:round;stroke-opacity:1" /><path
     d="m 33.540312,12.11811 c 0.192195,0.506907 -0.05981,1.071298 -0.562069,1.261751 -0.501681,0.190453 -1.064911,-0.06561 -1.257106,-0.57252 -0.191614,-0.506326 0.06039,-1.071298 0.562069,-1.261751 0.502262,-0.189872 1.065491,0.06619 1.257106,0.57252 z"
     id="path23"
     style="fill:#ffffff;fill-opacity:1;stroke:#ffffff;stroke-width:1.16129851;stroke-linecap:round;stroke-linejoin:round;stroke-opacity:1" /><path
     d="m 36.202008,14.437804 c -0.363487,0.3931 -0.977813,0.415164 -1.372655,0.04994 -0.394261,-0.364067 -0.418648,-0.978975 -0.05458,-1.371494 0.363486,-0.39368 0.978394,-0.416325 1.372074,-0.0511 0.394839,0.365229 0.419226,0.979555 0.05516,1.372655 z"
     id="path25"
     style="fill:#ffffff;fill-opacity:1;stroke:#ffffff;stroke-width:1.16129851;stroke-linecap:round;stroke-linejoin:round;stroke-opacity:1" /><path
     d="M 41.72398,15.64149"
     id="path14"
     style="fill:none;stroke:#ffffff;stroke-width:1.16129851;stroke-linecap:round;stroke-linejoin:round;stroke-opacity:1" /><path
     d="M 41.52772,5.7896139"
     id="path16"
     style="fill:none;stroke:#ffffff;stroke-width:1.16129851;stroke-linecap:round;stroke-linejoin:round;stroke-opacity:1" /><g
     transform="matrix(0.58064927,0,0,0.58064927,24.534441,0.10970278)"
     id="g18"
     style="fill:none;stroke:#ffffff;stroke-opacity:1"><g
       id="XMLID_1_"
       style="fill:none;stroke:#ffffff;stroke-opacity:1"><g
         id="g21"
         style="fill:none;stroke:#ffffff;stroke-opacity:1"><path
           d="m 24.533,14.555 -7.044,4.876 -0.082,-14.038 7.126,5.772 c 0,0.021 0.397,0.305 20.951,0.631 v 2.545 l -20.951,0.214 z"
           id="path24"
           style="fill:none;stroke:#ffffff;stroke-opacity:1" /></g><g
         id="g26"
         style="fill:none;stroke:#ffffff;stroke-opacity:1"><path
           d="M 45.483,11.796 C 24.929,11.47 24.532,11.186 24.532,11.165 l -7.126,-5.772 0.082,14.038 7.044,-4.876 20.951,-0.213 v -2.546 z"
           id="path28"
           style="fill:none;stroke:#ffffff;stroke-width:2;stroke-linecap:round;stroke-linejoin:round;stroke-opacity:1" /></g></g><line
       id="line30"
       y2="11.291"
       x2="36.449001"
       y1="8.2370005"
       x1="36.449001"
       style="fill:none;stroke:#ffffff;stroke-width:2;stroke-linecap:round;stroke-linejoin:round;stroke-opacity:1" /><line
       id="line32"
       y2="11.291"
       x2="33.521"
       y1="8.2370005"
       x1="33.521"
       style="fill:none;stroke:#ffffff;stroke-width:2;stroke-linecap:round;stroke-linejoin:round;stroke-opacity:1" /><line
       id="line34"
       y2="11.291"
       x2="30.466999"
       y1="8.2370005"
       x1="30.466999"
       style="fill:none;stroke:#ffffff;stroke-width:2;stroke-linecap:round;stroke-linejoin:round;stroke-opacity:1" /></g><path
     d="M 49.53197,3.7451479"
     id="path36"
     style="fill:none;stroke:#ffffff;stroke-width:1.16129851;stroke-linecap:round;stroke-linejoin:round;stroke-opacity:1" /><path
     d="M 48.212155,14.902323"
     id="path38"
     style="fill:none;stroke:#ffffff;stroke-width:1.16129851;stroke-linecap:round;stroke-linejoin:round;stroke-opacity:1" /><g
     transform="matrix(0.58064927,0,0,0.58064927,24.534441,0.10970278)"
     id="g40"
     style="fill:none;stroke:#ffffff;stroke-opacity:1"><g
       id="XMLID_3_"
       style="fill:none;stroke:#ffffff;stroke-opacity:1"><g
         id="g43"
         style="fill:none;stroke:#ffffff;stroke-opacity:1"><path
           d="m 47.486,42.039 c 0.626,6.335 -6.97,6.215 -6.97,6.215 h -0.068 c 0,0 -7.604,0.12 -6.97,-6.215 0.111,-1.071 2.041,-1.929 2.041,-1.929 0,0 0.856,-1.604 0.103,-3.644 L 34.336,33.14 c 0,0 -0.643,-5.247 5.684,-5.247 h 0.926 c 6.318,0 5.684,5.247 5.684,5.247 l -1.285,3.326 c -0.755,2.04 0.103,3.644 0.103,3.644 0,0 1.927,0.858 2.038,1.929 z"
           id="path45"
           style="fill:none;stroke:#ffffff;stroke-opacity:1" /></g><g
         id="g47"
         style="fill:none;stroke:#ffffff;stroke-opacity:1"><path
           d="m 40.945,27.894 c 6.318,0 5.684,5.247 5.684,5.247 l -1.285,3.326 c -0.755,2.04 0.103,3.644 0.103,3.644 0,0 1.929,0.857 2.04,1.929 0.626,6.335 -6.97,6.215 -6.97,6.215"
           id="path49"
           style="fill:none;stroke:#ffffff;stroke-width:3;stroke-linecap:round;stroke-linejoin:round;stroke-opacity:1" /><path
           d="m 40.02,27.894 c -6.326,0 -5.684,5.247 -5.684,5.247 l 1.286,3.326 c 0.754,2.04 -0.103,3.644 -0.103,3.644 0,0 -1.93,0.857 -2.041,1.929 -0.634,6.335 6.97,6.215 6.97,6.215"
           id="path51"
           style="fill:none;stroke:#ffffff;stroke-width:3;stroke-linecap:round;stroke-linejoin:round;stroke-opacity:1" /></g></g></g><circle
     cx="40.588001"
     cy="37.882999"
     r="2.036"
     transform="matrix(0.58064927,0,0,0.58064927,24.534441,0.10970278)"
     id="circle53"
     style="fill:none;stroke:#ffffff;stroke-linecap:round;stroke-linejoin:round;stroke-opacity:1" /><g
     transform="matrix(0.58064927,0,0,0.58064927,24.534441,0.10970278)"
     id="XMLID_2_"
     style="fill:#282828;fill-opacity:1;stroke:#ffffff;stroke-opacity:1"><g
       id="g56"
       style="fill:#282828;fill-opacity:1;stroke:#ffffff;stroke-opacity:1"><polygon
         points="39.258,33.452 39.385,8.128 41.705,8.001 41.959,33.452 "
         id="polygon58"
         style="fill:#282828;fill-opacity:1;stroke:#ffffff;stroke-opacity:1" /></g><g
       id="g60"
       style="fill:#282828;fill-opacity:1;stroke:#ffffff;stroke-opacity:1"><polygon
         points="39.258,33.452 39.385,8.128 41.705,8.001 41.959,33.452 "
         id="polygon62"
         style="fill:#282828;fill-opacity:1;stroke:#ffffff;stroke-width:2;stroke-linecap:round;stroke-linejoin:round;stroke-opacity:1" /></g></g></g><text
   x="21.615723"
   y="47"
   id="text4434"
   xml:space="preserve"
   style="font-size:11px;font-style:normal;font-weight:normal;line-height:125%;letter-spacing:0px;word-spacing:0px;fill:#000000;fill-opacity:1;stroke:none;font-family:Sans"><tspan
     x="21.615723"
     y="47"
     id="tspan4436"
     style="font-size:18px;fill:#ffffff;fill-opacity:1">9</tspan></text>


</svg>