<?xml version="1.0" encoding="utf-8"?>
<!-- Generator: Adobe Illustrator 13.0.0, SVG Export Plug-In . SVG Version: 6.00 Build 14576)  -->
<!DOCTYPE svg PUBLIC "-//W3C//DTD SVG 1.1//EN" "http://www.w3.org/Graphics/SVG/1.1/DTD/svg11.dtd">
<svg version="1.1" id="Layer_1" xmlns="http://www.w3.org/2000/svg" xmlns:xlink="http://www.w3.org/1999/xlink" x="0px" y="0px"
	 width="45.395px" height="45.395px" viewBox="0 0 45.395 45.395" enable-background="new 0 0 45.395 45.395" xml:space="preserve">
<circle fill="#808284" cx="22.698" cy="22.606" r="22.5"/>
<circle fill="none" stroke="#4C4D4F" stroke-width="2.25" cx="22.697" cy="22.698" r="21.572"/>
<g enable-background="new    ">
	<path fill="#FFFFFF" d="M18.773,26.016c0.486,0.252,1.603,0.72,2.719,0.72c1.423,0,2.143-0.684,2.143-1.566
		c0-1.152-1.152-1.674-2.358-1.674H20.16v-1.963h1.062c0.918-0.019,2.088-0.36,2.088-1.351c0-0.702-0.576-1.224-1.728-1.224
		c-0.955,0-1.962,0.414-2.449,0.702l-0.558-1.981c0.702-0.45,2.106-0.882,3.619-0.882c2.502,0,3.889,1.314,3.889,2.917
		c0,1.242-0.702,2.215-2.143,2.719v0.036c1.404,0.252,2.539,1.314,2.539,2.845c0,2.07-1.819,3.583-4.79,3.583
		c-1.512,0-2.791-0.396-3.475-0.828L18.773,26.016z"/>
</g>
</svg>
