<?xml version="1.0" encoding="utf-8"?>
<!-- Generator: Adobe Illustrator 13.0.0, SVG Export Plug-In . SVG Version: 6.00 Build 14576)  -->
<!DOCTYPE svg PUBLIC "-//W3C//DTD SVG 1.1//EN" "http://www.w3.org/Graphics/SVG/1.1/DTD/svg11.dtd">
<svg version="1.1" id="Layer_1" xmlns="http://www.w3.org/2000/svg" xmlns:xlink="http://www.w3.org/1999/xlink" x="0px" y="0px"
	 width="47px" height="20.14px" viewBox="0 0 47 20.14" enable-background="new 0 0 47 20.14" xml:space="preserve">
<g>
	<g>
		<path fill="#808284" d="M1,3.5C1,2.12,2.12,1,3.5,1h40C44.88,1,46,2.12,46,3.5C46,4.87,44.88,6,43.5,6h-40C2.12,6,1,4.87,1,3.5z"
			/>
		<path fill="none" stroke="#FFFFFF" stroke-width="2" stroke-linecap="round" stroke-linejoin="round" d="M1,3.5
			C1,2.12,2.12,1,3.5,1h40C44.88,1,46,2.12,46,3.5C46,4.87,44.88,6,43.5,6h-40C2.12,6,1,4.87,1,3.5z"/>
	</g>
	<g>
		
			<line fill="none" stroke="#FFFFFF" stroke-width="2" stroke-linecap="round" stroke-linejoin="round" x1="46" y1="12.08" x2="46" y2="19.14"/>
		
			<line fill="none" stroke="#FFFFFF" stroke-width="2" stroke-linecap="round" stroke-linejoin="round" x1="1.51" y1="19.14" x2="1.51" y2="12.08"/>
		
			<line fill="none" stroke="#FFFFFF" stroke-width="2" stroke-linecap="round" stroke-linejoin="round" x1="45.66" y1="15.77" x2="1" y2="15.77"/>
	</g>
</g>
</svg>
