<?xml version="1.0" encoding="utf-8"?>
<!-- Generator: Adobe Illustrator 13.0.0, SVG Export Plug-In . SVG Version: 6.00 Build 14576)  -->
<!DOCTYPE svg PUBLIC "-//W3C//DTD SVG 1.1//EN" "http://www.w3.org/Graphics/SVG/1.1/DTD/svg11.dtd">
<svg version="1.1" id="Layer_1" xmlns="http://www.w3.org/2000/svg" xmlns:xlink="http://www.w3.org/1999/xlink" x="0px" y="0px"
	 width="55px" height="55px" viewBox="0 0 55 55" enable-background="new 0 0 55 55" xml:space="preserve">
<path fill-rule="evenodd" clip-rule="evenodd" fill="#FFFFFF" d="M51,11.978l-0.018-0.203c-0.097-0.838-0.794-1.862-1.817-2.665
	c-1.024-0.812-2.18-1.245-3.018-1.156c-0.362,0.044-0.662,0.203-0.856,0.432l-0.026-0.008l-14.779,19.57l-0.07,0.062l-0.009,0.018
	l-0.035,0.079l-1.925,2.365l0.221,0.185h-0.009l-0.221-0.159l-0.034,0.036c-0.08,0.114-0.142,0.238-0.178,0.379l-0.061,0.044
	l-1.191,2.859l3.608,2.886l2.833-1.818l0.025-0.045l0.212-0.176l0.045-0.053l1.977-2.461l0.026-0.036l0.018-0.035v0.009
	l14.947-19.279l0.089-0.062l0.069-0.132l0.01-0.018C50.938,12.41,51,12.216,51,11.978z M24.317,40.116
	c-0.044,0.124-0.017,0.247,0.08,0.336c0.097,0.079,0.229,0.088,0.344,0.018l4.085-2.63l-2.656-2.127L24.317,40.116z"/>
<path fill="#808284" d="M6,44.229c0-1.218,0.988-2.206,2.206-2.206h18.75c1.209,0,2.206,0.988,2.206,2.206
	c0,1.217-0.997,2.205-2.206,2.205H8.206C6.988,46.434,6,45.445,6,44.229z"/>
<path fill="none" stroke="#FFFFFF" stroke-width="2" stroke-linecap="round" stroke-linejoin="round" d="M6,44.229
	c0-1.218,0.988-2.206,2.206-2.206h18.75c1.209,0,2.206,0.988,2.206,2.206c0,1.217-0.997,2.205-2.206,2.205H8.206
	C6.988,46.434,6,45.445,6,44.229z"/>
</svg>
