<?xml version="1.0" encoding="utf-8"?>
<!-- Generator: Adobe Illustrator 13.0.0, SVG Export Plug-In . SVG Version: 6.00 Build 14576)  -->
<!DOCTYPE svg PUBLIC "-//W3C//DTD SVG 1.1//EN" "http://www.w3.org/Graphics/SVG/1.1/DTD/svg11.dtd">
<svg version="1.1" id="Layer_1" xmlns="http://www.w3.org/2000/svg" xmlns:xlink="http://www.w3.org/1999/xlink" x="0px" y="0px"
	 width="52px" height="44.623px" viewBox="0 0 52 44.623" enable-background="new 0 0 52 44.623" xml:space="preserve">
<path fill-rule="evenodd" clip-rule="evenodd" fill="#FFFFFF" d="M52,4.573l-0.02-0.23c-0.11-0.95-0.9-2.11-2.06-3.02
	c-1.16-0.92-2.47-1.41-3.42-1.31c-0.41,0.05-0.75,0.23-0.97,0.49l-0.03-0.01l-16.75,22.18l-0.08,0.07l-0.01,0.02l-0.04,0.09
	l-2.18,2.68l0.25,0.21h-0.01l-0.25-0.18l-0.04,0.04c-0.09,0.13-0.16,0.27-0.2,0.43l-0.07,0.05l-1.35,3.24l4.09,3.27l3.21-2.06
	l0.03-0.05l0.24-0.2l0.05-0.06l2.24-2.79l0.03-0.04l0.02-0.04v0.01l16.94-21.85l0.1-0.07l0.08-0.15l0.01-0.02
	C51.93,5.062,52,4.843,52,4.573z M21.76,36.462c-0.05,0.14-0.02,0.28,0.09,0.38c0.11,0.09,0.26,0.1,0.39,0.02l4.63-2.98l-3.01-2.41
	L21.76,36.462z"/>
<g>
	<polygon fill="none" points="20.33,18.613 18.76,20.683 20.33,20.683 	"/>
</g>
<path fill="#808284" d="M1,41.123c0-1.38,1.12-2.5,2.5-2.5h21.25c1.37,0,2.5,1.12,2.5,2.5s-1.13,2.5-2.5,2.5H3.5
	C2.12,43.623,1,42.502,1,41.123z"/>
<path fill="none" stroke="#FFFFFF" stroke-width="2" stroke-linecap="round" stroke-linejoin="round" d="M1,41.123
	c0-1.38,1.12-2.5,2.5-2.5h21.25c1.37,0,2.5,1.12,2.5,2.5s-1.13,2.5-2.5,2.5H3.5C2.12,43.623,1,42.502,1,41.123z"/>
</svg>
