<?xml version="1.0" encoding="UTF-8" standalone="no"?>
<!-- Created with Inkscape (http://www.inkscape.org/) -->

<svg
   xmlns:dc="http://purl.org/dc/elements/1.1/"
   xmlns:cc="http://creativecommons.org/ns#"
   xmlns:rdf="http://www.w3.org/1999/02/22-rdf-syntax-ns#"
   xmlns:svg="http://www.w3.org/2000/svg"
   xmlns="http://www.w3.org/2000/svg"
   version="1.1"
   width="55.125"
   height="55"
   viewBox="0 0 55.125 55"
   id="svg4477"
   xml:space="preserve"><metadata
     id="metadata4486"><rdf:RDF><cc:Work
         rdf:about=""><dc:format>image/svg+xml</dc:format><dc:type
           rdf:resource="http://purl.org/dc/dcmitype/StillImage" /><dc:title></dc:title></cc:Work></rdf:RDF></metadata><defs
     id="defs4484">
	

		
		
		
		
		
		
			
		
	
			
				
			
		</defs><g
     transform="translate(4.177924,7.7652065)"
     id="g3868"
     style="stroke:#ffffff;stroke-width:2.5;stroke-miterlimit:4;stroke-opacity:1;stroke-dasharray:none"><path
       d="m 10.891798,22.615055 c 0.412822,-4.213333 3.118985,-8.878057 7.551676,-9.730009"
       id="path3847"
       style="fill:none;stroke:#ffffff;stroke-width:2.5;stroke-linecap:round;stroke-linejoin:miter;stroke-miterlimit:4;stroke-opacity:1;stroke-dasharray:none" /><path
       d="M 18.443444,12.15893 11.472693,11.723258"
       id="path3864"
       style="fill:none;stroke:#ffffff;stroke-width:2.5;stroke-linecap:round;stroke-linejoin:miter;stroke-miterlimit:4;stroke-opacity:1;stroke-dasharray:none" /><path
       d="m 18.443444,13.030274 -0.72612,5.082838"
       id="path3866"
       style="fill:none;stroke:#ffffff;stroke-width:2.5;stroke-linecap:round;stroke-linejoin:miter;stroke-miterlimit:4;stroke-opacity:1;stroke-dasharray:none" /></g><path
     d="M 12.905089,39.465727 12.619612,33.411473 M 38.613483,51.483315 3.4259824,51.75 3.25,39.758909 l 9.34656,-6.358972 33.95563,0 -0.175983,12.124479 z M 3.4259824,39.892252 37.73357,40.158937 38.261517,51.083285 m -0.48946,-11.052012 8.834981,-6.638311"
     id="path3806"
     style="fill:none;stroke:#ffffff;stroke-width:2.5;stroke-linecap:butt;stroke-linejoin:miter;stroke-miterlimit:4;stroke-opacity:1;stroke-dasharray:none;stroke-dashoffset:0" /><g
     transform="matrix(0.62068966,0,0,0.62068966,22.45269,-1.8221381)"
     id="activity-synthlab"
     style="fill:none;stroke:#ffffff;stroke-width:4.02777767;stroke-miterlimit:4;stroke-opacity:1;stroke-dasharray:none;display:block">
	<g
   id="g3383"
   style="fill:none;stroke:#ffffff;stroke-width:4.02777767;stroke-miterlimit:4;stroke-opacity:1;stroke-dasharray:none;display:inline">
		<path
   d="m 7.729,12.592 c 0,-2.215 3.275,-4.948 5.925,-4.948 h 28.149 c 2.648,0 5.925,2.734 5.925,4.948 v 18.347 c 0,9.233 -8.953,16.705 -20,16.705 C 16.68,47.644 7.729,40.169 7.729,30.939 V 12.592 z"
   id="path3385"
   style="fill:none;stroke:#ffffff;stroke-width:4.02777767;stroke-linecap:square;stroke-miterlimit:4;stroke-opacity:1;stroke-dasharray:none" />
		<g
   id="g3387"
   style="fill:none;stroke:#ffffff;stroke-width:4.02777767;stroke-miterlimit:4;stroke-opacity:1;stroke-dasharray:none">
			<path
   d="m 16.743,27.703 c 5.927,-24.441 11.436,0 11.436,0"
   id="path3389"
   style="fill:none;stroke:#ffffff;stroke-width:4.02777767;stroke-linecap:round;stroke-miterlimit:4;stroke-opacity:1;stroke-dasharray:none" />
			<path
   d="m 39.252,25.977 c -5.926,24.444 -11.436,0 -11.436,0"
   id="path3391"
   style="fill:none;stroke:#ffffff;stroke-width:4.02777767;stroke-linecap:round;stroke-linejoin:round;stroke-miterlimit:4;stroke-opacity:1;stroke-dasharray:none" />
		</g>
	</g>
</g></svg>