<?xml version="1.0" encoding="utf-8"?>
<!-- Generator: Adobe Illustrator 13.0.0, SVG Export Plug-In . SVG Version: 6.00 Build 14576)  -->
<!DOCTYPE svg PUBLIC "-//W3C//DTD SVG 1.1//EN" "http://www.w3.org/Graphics/SVG/1.1/DTD/svg11.dtd">
<svg version="1.1" id="Layer_1" xmlns="http://www.w3.org/2000/svg" xmlns:xlink="http://www.w3.org/1999/xlink" x="0px" y="0px"
	 width="45.395px" height="45.395px" viewBox="0 0 45.395 45.395" enable-background="new 0 0 45.395 45.395" xml:space="preserve">
<polygon fill="none" stroke="#FFFFFF" stroke-width="2" points="4.99,0.966 4.99,43.698 38.209,43.698 38.323,9.642 29.648,1.194 
	"/>
<polyline fill="#E6E3E1" stroke="#5D6060" stroke-width="2" points="29.531,1.239 29.531,9.95 38.364,9.95 "/>
<g>
	<path fill="#FFFFFF" d="M14.916,20.592H14.88l-2.232,1.062l-0.45-2.053l3.097-1.44h2.27v11.704h-2.647V20.592z"/>
	<path fill="#FFFFFF" d="M30.056,23.959c0,3.619-1.458,6.104-4.447,6.104c-3.024,0-4.357-2.719-4.375-6.032
		c0-3.385,1.44-6.067,4.466-6.067C28.832,17.963,30.056,20.754,30.056,23.959z M23.989,24.031c-0.018,2.683,0.63,3.962,1.692,3.962
		s1.639-1.333,1.639-3.998c0-2.592-0.559-3.961-1.656-3.961C24.655,20.033,23.971,21.312,23.989,24.031z"/>
</g>
</svg>
