<?xml version="1.0" encoding="UTF-8" standalone="no"?>
<!-- Created with Inkscape (http://www.inkscape.org/) -->

<svg
   xmlns:dc="http://purl.org/dc/elements/1.1/"
   xmlns:cc="http://creativecommons.org/ns#"
   xmlns:rdf="http://www.w3.org/1999/02/22-rdf-syntax-ns#"
   xmlns:svg="http://www.w3.org/2000/svg"
   xmlns="http://www.w3.org/2000/svg"
   version="1.1"
   width="55.125"
   height="55"
   viewBox="0 0 55.125 55"
   id="svg4477"
   xml:space="preserve"><metadata
     id="metadata4486"><rdf:RDF><cc:Work
         rdf:about=""><dc:format>image/svg+xml</dc:format><dc:type
           rdf:resource="http://purl.org/dc/dcmitype/StillImage" /><dc:title></dc:title></cc:Work></rdf:RDF></metadata><defs
     id="defs4484">
	

		
		
		
		
		
		
			
		
	
			
				
			
		</defs><g
     transform="matrix(0.62068966,0,0,0.62068966,22.45269,-1.8221381)"
     id="activity-synthlab"
     style="fill:none;stroke:#ffffff;stroke-width:4.02777767;stroke-miterlimit:4;stroke-opacity:1;stroke-dasharray:none;display:block">
	<g
   id="g3383"
   style="fill:none;stroke:#ffffff;stroke-width:4.02777767;stroke-miterlimit:4;stroke-opacity:1;stroke-dasharray:none;display:inline">
		<path
   d="m 7.729,12.592 c 0,-2.215 3.275,-4.948 5.925,-4.948 h 28.149 c 2.648,0 5.925,2.734 5.925,4.948 v 18.347 c 0,9.233 -8.953,16.705 -20,16.705 C 16.68,47.644 7.729,40.169 7.729,30.939 V 12.592 z"
   id="path3385"
   style="fill:none;stroke:#ffffff;stroke-width:4.02777767;stroke-linecap:square;stroke-miterlimit:4;stroke-opacity:1;stroke-dasharray:none" />
		<g
   id="g3387"
   style="fill:none;stroke:#ffffff;stroke-width:4.02777767;stroke-miterlimit:4;stroke-opacity:1;stroke-dasharray:none">
			<path
   d="m 16.743,27.703 c 5.927,-24.441 11.436,0 11.436,0"
   id="path3389"
   style="fill:none;stroke:#ffffff;stroke-width:4.02777767;stroke-linecap:round;stroke-miterlimit:4;stroke-opacity:1;stroke-dasharray:none" />
			<path
   d="m 39.252,25.977 c -5.926,24.444 -11.436,0 -11.436,0"
   id="path3391"
   style="fill:none;stroke:#ffffff;stroke-width:4.02777767;stroke-linecap:round;stroke-linejoin:round;stroke-miterlimit:4;stroke-opacity:1;stroke-dasharray:none" />
		</g>
	</g>
</g><g
     transform="translate(-0.2743801,0.51351)"
     id="g3036"><path
       d="M 9.5689397,38.952218 9.3902171,32.897964 M 25.663656,50.969805 3.6345541,51.23649 3.5243801,39.2454 l 5.851406,-6.358972 21.2578909,0 -0.110174,12.124478 z M 3.6345541,39.378743 l 21.4782339,0.266685 0.33052,10.924347 m -0.306426,-11.052011 5.531132,-6.638311"
       id="path3806"
       style="fill:none;stroke:#ffffff;stroke-width:2.5;stroke-linecap:butt;stroke-linejoin:miter;stroke-miterlimit:4;stroke-opacity:1;stroke-dasharray:none;stroke-dashoffset:0" /><g
       transform="matrix(0,-1,-1,0,47.3087,85.9835)"
       id="g4770"><g
         transform="translate(34.0803,-1006.42)"
         id="g4772"><polyline
           id="polyline4774"
           points="51.562,15.306 41.17,16.188 42.053,5.794"
           style="fill:none;stroke:#ffffff;stroke-width:3.5;stroke-linecap:round;stroke-linejoin:round"
           transform="matrix(-0.469241,0.469241,-0.469241,-0.469241,66.2906,1019.03)" /><path
           d="m 39.363241,1033.1291 -0.05636,9.9115 -8.750608,0.067"
           id="path4776"
           style="fill:none;stroke:#ffffff;stroke-width:2.5;stroke-linecap:round;stroke-linejoin:round;stroke-miterlimit:4;stroke-opacity:1;stroke-dasharray:none" /></g></g></g></svg>