<?xml version="1.0" encoding="utf-8"?>
<!-- Generator: Adobe Illustrator 13.0.0, SVG Export Plug-In . SVG Version: 6.00 Build 14576)  -->
<!DOCTYPE svg PUBLIC "-//W3C//DTD SVG 1.1//EN" "http://www.w3.org/Graphics/SVG/1.1/DTD/svg11.dtd">
<svg version="1.1" id="Layer_1" xmlns="http://www.w3.org/2000/svg" xmlns:xlink="http://www.w3.org/1999/xlink" x="0px" y="0px"
	 width="45.395px" height="45.395px" viewBox="0 0 45.395 45.395" enable-background="new 0 0 45.395 45.395" xml:space="preserve">
<polygon fill="none" stroke="#FFFFFF" stroke-width="2" points="4.99,0.966 4.99,43.698 38.209,43.698 38.323,9.642 29.648,1.194 
	"/>
<polyline fill="#E6E3E1" stroke="#5D6060" stroke-width="2" points="29.531,1.239 29.531,9.95 38.364,9.95 "/>
<g>
	<path fill="#FFFFFF" d="M19.362,23.982c-1.135-0.576-1.692-1.53-1.692-2.557c0-1.98,1.782-3.295,4.123-3.295
		c2.736,0,3.871,1.584,3.871,3.007c0,1.008-0.54,1.999-1.692,2.574v0.055c1.134,0.432,2.143,1.404,2.143,2.916
		c0,2.125-1.783,3.548-4.502,3.548c-2.971,0-4.339-1.675-4.339-3.259c0-1.404,0.811-2.377,2.089-2.936V23.982z M23.323,26.881
		c0-1.027-0.756-1.639-1.837-1.928c-0.899,0.253-1.422,0.9-1.422,1.747c-0.019,0.847,0.63,1.639,1.656,1.639
		C22.693,28.339,23.323,27.709,23.323,26.881z M20.243,21.335c0,0.792,0.721,1.296,1.656,1.584c0.631-0.18,1.188-0.756,1.188-1.494
		c0-0.72-0.414-1.44-1.422-1.44C20.73,19.985,20.243,20.597,20.243,21.335z"/>
</g>
</svg>
