<?xml version="1.0" encoding="utf-8"?>
<!-- Generator: Adobe Illustrator 13.0.0, SVG Export Plug-In . SVG Version: 6.00 Build 14576)  -->
<!DOCTYPE svg PUBLIC "-//W3C//DTD SVG 1.1//EN" "http://www.w3.org/Graphics/SVG/1.1/DTD/svg11.dtd">
<svg version="1.1" id="Layer_1" xmlns="http://www.w3.org/2000/svg" xmlns:xlink="http://www.w3.org/1999/xlink" x="0px" y="0px"
	 width="45.395px" height="45.395px" viewBox="0 0 45.395 45.395" enable-background="new 0 0 45.395 45.395" xml:space="preserve">
<polygon fill="none" stroke="#FFFFFF" stroke-width="2" points="4.99,0.966 4.99,43.698 38.209,43.698 38.323,9.642 29.648,1.194 
	"/>
<polyline fill="#E6E3E1" stroke="#5D6060" stroke-width="2" points="29.531,1.239 29.531,9.95 38.364,9.95 "/>
<g>
	<path fill="#FFFFFF" d="M17.119,29.365v-1.656l1.513-1.368c2.557-2.287,3.799-3.602,3.835-4.97c0-0.955-0.576-1.711-1.927-1.711
		c-1.008,0-1.89,0.504-2.502,0.973l-0.774-1.963c0.882-0.666,2.251-1.206,3.835-1.206c2.646,0,4.105,1.548,4.105,3.673
		c0,1.963-1.423,3.529-3.115,5.042l-1.08,0.9v0.035h4.411v2.251H17.119z"/>
</g>
</svg>
