<?xml version="1.0" encoding="utf-8"?>
<!-- Generator: Adobe Illustrator 13.0.0, SVG Export Plug-In . SVG Version: 6.00 Build 14576)  -->
<!DOCTYPE svg PUBLIC "-//W3C//DTD SVG 1.1//EN" "http://www.w3.org/Graphics/SVG/1.1/DTD/svg11.dtd">
<svg version="1.1" id="Layer_1" xmlns="http://www.w3.org/2000/svg" xmlns:xlink="http://www.w3.org/1999/xlink" x="0px" y="0px"
	 width="45.395px" height="45.395px" viewBox="0 0 45.395 45.395" enable-background="new 0 0 45.395 45.395" xml:space="preserve">
<polygon fill="none" stroke="#FFFFFF" stroke-width="2" points="4.99,0.966 4.99,45.031 38.209,45.031 38.323,9.642 29.648,1.194 
	"/>
<polyline fill="#E6E3E1" stroke="#5D6060" stroke-width="2" points="29.531,1.239 29.531,9.95 38.364,9.95 "/>
<path fill="#FFFFFF" d="M25.223,20.605h-4.537l-0.252,1.8c0.252-0.036,0.468-0.036,0.756-0.036c1.117,0,2.251,0.252,3.08,0.846
	c0.883,0.594,1.422,1.566,1.422,2.936c0,2.178-1.873,4.105-5.023,4.105c-1.423,0-2.611-0.324-3.259-0.666l0.486-2.053
	c0.522,0.252,1.585,0.576,2.647,0.576c1.134,0,2.34-0.541,2.34-1.783c0-1.207-0.955-1.945-3.295-1.945
	c-0.648,0-1.098,0.037-1.584,0.109l0.774-6.141h6.445V20.605z"/>
</svg>
