<?xml version="1.0" encoding="utf-8"?>
<!-- Generator: Adobe Illustrator 13.0.0, SVG Export Plug-In . SVG Version: 6.00 Build 14576)  -->
<!DOCTYPE svg PUBLIC "-//W3C//DTD SVG 1.1//EN" "http://www.w3.org/Graphics/SVG/1.1/DTD/svg11.dtd">
<svg version="1.1" id="Layer_1" xmlns="http://www.w3.org/2000/svg" xmlns:xlink="http://www.w3.org/1999/xlink" x="0px" y="0px"
	 width="45.395px" height="45.395px" viewBox="0 0 45.395 45.395" enable-background="new 0 0 45.395 45.395" xml:space="preserve">
<polygon fill="none" stroke="#FFFFFF" stroke-width="2" points="4.99,0.966 4.99,43.698 38.209,43.698 38.323,9.642 29.648,1.194 
	"/>
<polyline fill="#E6E3E1" stroke="#5D6060" stroke-width="2" points="29.531,1.24 29.531,9.95 38.365,9.95 "/>
<g>
	<path fill="#FFFFFF" d="M24.759,20.773c-0.307,0-0.63,0-1.062,0.036c-2.431,0.198-3.511,1.44-3.816,2.81h0.055
		c0.576-0.595,1.386-0.938,2.484-0.938c1.963,0,3.619,1.387,3.619,3.817c0,2.321-1.782,4.23-4.321,4.23
		c-3.115,0-4.646-2.322-4.646-5.113c0-2.196,0.812-4.033,2.07-5.203c1.171-1.062,2.685-1.639,4.521-1.729
		c0.505-0.036,0.828-0.036,1.099-0.018L24.759,20.773L24.759,20.773z M21.698,28.713c0.953,0,1.565-0.883,1.565-2.07
		c0-1.081-0.576-2.018-1.747-2.018c-0.738,0-1.351,0.451-1.62,1.045c-0.071,0.145-0.107,0.358-0.107,0.684
		c0.054,1.242,0.647,2.359,1.891,2.359H21.698z"/>
</g>
</svg>
