<?xml version="1.0" encoding="utf-8"?>
<!-- Generator: Adobe Illustrator 13.0.0, SVG Export Plug-In . SVG Version: 6.00 Build 14576)  -->
<!DOCTYPE svg PUBLIC "-//W3C//DTD SVG 1.1//EN" "http://www.w3.org/Graphics/SVG/1.1/DTD/svg11.dtd">
<svg version="1.1" id="Layer_1" xmlns="http://www.w3.org/2000/svg" xmlns:xlink="http://www.w3.org/1999/xlink" x="0px" y="0px"
	 width="45.395px" height="45.395px" viewBox="0 0 45.395 45.395" enable-background="new 0 0 45.395 45.395" xml:space="preserve">
<polygon fill="none" stroke="#FFFFFF" stroke-width="2" points="4.99,0.966 4.99,43.698 38.209,43.698 38.323,9.642 29.648,1.194 
	"/>
<polyline fill="#E6E3E1" stroke="#5D6060" stroke-width="2" points="29.531,1.239 29.531,9.95 38.364,9.95 "/>
<g>
	<path fill="#FFFFFF" d="M18.107,26.848c0.486,0.252,1.603,0.72,2.719,0.72c1.423,0,2.143-0.684,2.143-1.566
		c0-1.152-1.152-1.674-2.358-1.674h-1.116v-1.963h1.062c0.918-0.018,2.088-0.36,2.088-1.351c0-0.702-0.576-1.224-1.729-1.224
		c-0.954,0-1.962,0.414-2.448,0.702l-0.559-1.981c0.702-0.45,2.107-0.882,3.619-0.882c2.503,0,3.89,1.314,3.89,2.917
		c0,1.243-0.702,2.215-2.143,2.719V23.3c1.404,0.253,2.538,1.314,2.538,2.846c0,2.07-1.818,3.583-4.789,3.583
		c-1.513,0-2.791-0.396-3.475-0.828L18.107,26.848z"/>
</g>
</svg>
