<?xml version="1.0" encoding="utf-8"?>
<!-- Generator: Adobe Illustrator 13.0.0, SVG Export Plug-In . SVG Version: 6.00 Build 14576)  -->
<!DOCTYPE svg PUBLIC "-//W3C//DTD SVG 1.1//EN" "http://www.w3.org/Graphics/SVG/1.1/DTD/svg11.dtd">
<svg version="1.1" id="Layer_1" xmlns="http://www.w3.org/2000/svg" xmlns:xlink="http://www.w3.org/1999/xlink" x="0px" y="0px"
	 width="45.395px" height="45.395px" viewBox="0 0 45.395 45.395" enable-background="new 0 0 45.395 45.395" xml:space="preserve">
<polygon fill="none" stroke="#FFFFFF" stroke-width="2" points="4.99,0.966 4.99,43.698 38.209,43.698 38.323,9.642 29.648,1.194 
	"/>
<polyline fill="#E6E3E1" stroke="#5D6060" stroke-width="2" points="29.531,1.239 29.531,9.95 38.364,9.95 "/>
<g>
	<path fill="#FFFFFF" d="M18.99,28.362c0.343,0.036,0.648,0.036,1.188,0c0.828-0.055,1.675-0.288,2.305-0.721
		c0.757-0.521,1.261-1.277,1.477-2.16l-0.054-0.018c-0.522,0.539-1.278,0.846-2.341,0.846c-1.98,0-3.655-1.387-3.655-3.655
		c0-2.287,1.837-4.213,4.411-4.213c3.007,0,4.43,2.305,4.43,5.042c0,2.43-0.774,4.213-2.053,5.383
		c-1.116,1.009-2.646,1.566-4.465,1.639c-0.469,0.036-0.937,0.018-1.243,0V28.362z M22.231,20.439c-0.918,0-1.603,0.828-1.584,2.052
		c0,1.009,0.54,1.873,1.656,1.873c0.738,0,1.261-0.36,1.513-0.774c0.09-0.162,0.144-0.342,0.144-0.684
		c0-1.243-0.468-2.467-1.71-2.467H22.231z"/>
</g>
</svg>
