<?xml version="1.0" encoding="utf-8"?>
<!-- Generator: Adobe Illustrator 13.0.0, SVG Export Plug-In . SVG Version: 6.00 Build 14576)  -->
<!DOCTYPE svg PUBLIC "-//W3C//DTD SVG 1.1//EN" "http://www.w3.org/Graphics/SVG/1.1/DTD/svg11.dtd">
<svg version="1.1" id="Layer_1" xmlns="http://www.w3.org/2000/svg" xmlns:xlink="http://www.w3.org/1999/xlink" x="0px" y="0px"
	 width="75px" height="75px" viewBox="0 0 45 45" enable-background="new 0 0 45 45" xml:space="preserve">
<polygon fill="#FFFFFF" points="39.26,20.326 40.87,20.119 42.082,20.262 45,21.575 45,23.425 42.082,24.738 40.87,24.881 
	39.26,24.674 38.526,27.927 40.065,28.449 41.1,29.113 43.169,31.584 42.382,33.256 39.189,33.157 38.031,32.744 36.668,31.845 
	34.625,34.451 35.784,35.601 36.438,36.661 37.244,39.797 35.82,40.947 32.989,39.456 32.114,38.575 31.273,37.165 28.32,38.611 
	28.877,40.166 29.009,41.396 28.391,44.587 26.622,45 24.711,42.394 24.295,41.226 24.145,39.582 20.855,39.582 20.705,41.226 
	20.289,42.394 18.378,45 16.609,44.587 15.991,41.396 16.123,40.166 16.68,38.611 13.727,37.165 12.886,38.575 12.011,39.456 
	9.18,40.947 7.756,39.797 8.562,36.661 9.216,35.601 10.375,34.451 8.332,31.845 6.969,32.744 5.811,33.157 2.618,33.256 
	1.831,31.584 3.9,29.113 4.935,28.449 6.474,27.927 5.74,24.674 4.13,24.881 2.918,24.738 0,23.425 0,21.575 2.918,20.262 
	4.13,20.119 5.74,20.326 6.474,17.073 4.935,16.551 3.9,15.887 1.831,13.416 2.618,11.744 5.811,11.843 6.969,12.256 8.332,13.155 
	10.375,10.549 9.216,9.399 8.562,8.339 7.756,5.203 9.18,4.053 12.011,5.544 12.886,6.425 13.727,7.835 16.68,6.389 16.123,4.834 
	15.991,3.604 16.609,0.413 18.378,0 20.289,2.606 20.705,3.774 20.855,5.418 24.145,5.418 24.295,3.774 24.711,2.606 26.622,0 
	28.391,0.413 29.009,3.604 28.877,4.834 28.32,6.389 31.273,7.835 32.114,6.425 32.989,5.544 35.82,4.053 37.244,5.203 
	36.438,8.339 35.784,9.399 34.625,10.549 36.668,13.155 38.031,12.256 39.189,11.843 42.382,11.744 43.169,13.416 41.1,15.887 
	40.065,16.551 38.526,17.073 "/>
<ellipse fill-rule="evenodd" clip-rule="evenodd" fill="#3B3C3E" cx="22.5" cy="22.5" rx="14.593" ry="14.826"/>
<path fill-rule="evenodd" clip-rule="evenodd" fill="#FFFFFF" d="M11.444,22.5c0-6.2,4.953-11.232,11.056-11.232
	S33.556,16.3,33.556,22.5S28.603,33.732,22.5,33.732S11.444,28.7,11.444,22.5z"/>
<ellipse fill-rule="evenodd" clip-rule="evenodd" fill="#3B3C3E" cx="22.5" cy="22.5" rx="4.864" ry="4.942"/>
</svg>
