<?xml version="1.0" encoding="utf-8"?>
<!-- Generator: Adobe Illustrator 13.0.0, SVG Export Plug-In . SVG Version: 6.00 Build 14576)  -->
<!DOCTYPE svg PUBLIC "-//W3C//DTD SVG 1.1//EN" "http://www.w3.org/Graphics/SVG/1.1/DTD/svg11.dtd">
<svg version="1.1" id="Layer_1" xmlns="http://www.w3.org/2000/svg" xmlns:xlink="http://www.w3.org/1999/xlink" x="0px" y="0px"
	 width="55px" height="55px" viewBox="0 0 55 55" enable-background="new 0 0 55 55" xml:space="preserve">
<path fill="#FFFFFF" d="M33.958,27.5c0,3.562-2.896,6.458-6.458,6.458c-3.562,0-6.458-2.896-6.458-6.458
	c0-3.562,2.896-6.458,6.458-6.458C31.062,21.042,33.958,23.938,33.958,27.5z"/>
<polygon fill="#FFFFFF" points="44.26,25.326 45.87,25.119 47.082,25.262 50,26.575 50,28.425 47.082,29.738 45.87,29.881 
	44.26,29.674 43.525,32.927 45.064,33.449 46.1,34.113 48.169,36.584 47.382,38.256 44.189,38.157 43.031,37.744 41.668,36.846 
	39.625,39.451 40.784,40.602 41.438,41.661 42.244,44.797 40.82,45.947 37.988,44.456 37.113,43.575 36.273,42.165 33.32,43.611 
	33.877,45.166 34.009,46.396 33.391,49.587 31.622,50 29.711,47.395 29.295,46.227 29.145,44.582 25.855,44.582 25.705,46.227 
	25.289,47.395 23.378,50 21.609,49.587 20.991,46.396 21.123,45.166 21.68,43.611 18.727,42.165 17.886,43.575 17.011,44.456 
	14.18,45.947 12.756,44.797 13.562,41.661 14.216,40.602 15.375,39.451 13.332,36.846 11.969,37.744 10.811,38.157 7.618,38.256 
	6.831,36.584 8.9,34.113 9.935,33.449 11.474,32.927 10.74,29.674 9.13,29.881 7.918,29.738 5,28.425 5,26.575 7.918,25.262 
	9.13,25.119 10.74,25.326 11.474,22.073 9.935,21.551 8.9,20.887 6.831,18.416 7.618,16.744 10.811,16.843 11.969,17.256 
	13.332,18.155 15.375,15.549 14.216,14.399 13.562,13.339 12.756,10.203 14.18,9.053 17.011,10.544 17.886,11.425 18.727,12.835 
	21.68,11.389 21.123,9.834 20.991,8.604 21.609,5.413 23.378,5 25.289,7.606 25.705,8.774 25.855,10.418 29.145,10.418 
	29.295,8.774 29.711,7.606 31.622,5 33.391,5.413 34.009,8.604 33.877,9.834 33.32,11.389 36.273,12.835 37.113,11.425 
	37.988,10.544 40.82,9.053 42.244,10.203 41.438,13.339 40.784,14.399 39.625,15.549 41.668,18.155 43.031,17.256 44.189,16.843 
	47.382,16.744 48.169,18.416 46.1,20.887 45.064,21.551 43.525,22.073 "/>
<ellipse fill="#3B3C3E" cx="27.5" cy="27.5" rx="14.593" ry="14.826"/>
<path fill="#FFFFFF" d="M16.444,27.5c0-6.2,4.953-11.232,11.056-11.232c6.104,0,11.057,5.032,11.057,11.232
	S33.604,38.732,27.5,38.732C21.397,38.732,16.444,33.7,16.444,27.5z"/>
<ellipse fill="#3B3C3E" cx="27.5" cy="27.5" rx="4.863" ry="4.942"/>
</svg>
