<?xml version="1.0" encoding="utf-8"?>
<!-- Generator: Adobe Illustrator 13.0.0, SVG Export Plug-In . SVG Version: 6.00 Build 14576)  -->
<!DOCTYPE svg PUBLIC "-//W3C//DTD SVG 1.1//EN" "http://www.w3.org/Graphics/SVG/1.1/DTD/svg11.dtd">
<svg version="1.1" id="Layer_1" xmlns="http://www.w3.org/2000/svg" xmlns:xlink="http://www.w3.org/1999/xlink" x="0px" y="0px"
	 width="55px" height="55px" viewBox="0 0 55 55" enable-background="new 0 0 55 55" xml:space="preserve">
<g>
	<circle fill="#808284" cx="27" cy="27" r="22.5"/>
	<circle fill="none" stroke="#4C4D4F" stroke-width="2.25" cx="26.999" cy="27.092" r="18.677"/>
	<path fill="#FFFFFF" d="M34.895,27c0,4.354-3.541,7.895-7.895,7.895c-4.354,0-7.895-3.541-7.895-7.895
		c0-4.354,3.54-7.895,7.895-7.895C31.354,19.105,34.895,22.646,34.895,27z"/>
</g>
<g enable-background="new    ">
	<path fill="#FFFFFF" d="M35.615,30.777h4.377v8.638h0.087c0.435-0.753,0.898-1.449,1.333-2.145l4.435-6.493h5.42l-6.463,8.318
		l6.812,11.217h-5.16l-4.782-8.434l-1.681,2.058v6.376h-4.377V30.777z"/>
</g>
</svg>
