<?xml version="1.0" encoding="utf-8"?>
<!-- Generator: Adobe Illustrator 13.0.0, SVG Export Plug-In . SVG Version: 6.00 Build 14576)  -->
<!DOCTYPE svg PUBLIC "-//W3C//DTD SVG 1.1//EN" "http://www.w3.org/Graphics/SVG/1.1/DTD/svg11.dtd">
<svg version="1.1" id="Layer_1" xmlns="http://www.w3.org/2000/svg" xmlns:xlink="http://www.w3.org/1999/xlink" x="0px" y="0px"
	 width="80px" height="80px" viewBox="0 0 80 80" enable-background="new 0 0 80 80" xml:space="preserve">
<g>
	
		<path fill-rule="evenodd" clip-rule="evenodd" fill="#3399FF" stroke="#333333" stroke-linecap="round" stroke-linejoin="round" d="
		M5.598,23.098c0-9.332,7.571-16.902,16.902-16.902h33.804c9.332,0,16.89,7.571,16.89,16.902v33.806
		c0,9.331-7.558,16.901-16.89,16.901H22.5c-9.332,0-16.902-7.57-16.902-16.901V23.098z"/>
</g>
<path fill-rule="evenodd" clip-rule="evenodd" fill="#F5D04E" stroke="#333333" stroke-linecap="round" stroke-linejoin="round" d="
	M68,20.5c0-2.869,2.326-5.195,5.194-5.195c2.881,0,5.208,2.327,5.208,5.195c0,2.868-2.327,5.194-5.208,5.194
	C70.326,25.695,68,23.369,68,20.5z"/>
<path fill-rule="evenodd" clip-rule="evenodd" fill="#F5D04E" stroke="#333333" stroke-linecap="round" stroke-linejoin="round" d="
	M68,33.5c0-2.869,2.326-5.195,5.194-5.195c2.881,0,5.208,2.327,5.208,5.195c0,2.868-2.327,5.194-5.208,5.194
	C70.326,38.695,68,36.368,68,33.5z"/>
<path fill-rule="evenodd" clip-rule="evenodd" fill="#F5D04E" stroke="#333333" stroke-linecap="round" stroke-linejoin="round" d="
	M68,46.499c0-2.867,2.326-5.193,5.194-5.193c2.881,0,5.208,2.326,5.208,5.193c0,2.868-2.327,5.196-5.208,5.196
	C70.326,51.695,68,49.367,68,46.499z"/>
<path fill-rule="evenodd" clip-rule="evenodd" fill="#F5D04E" stroke="#333333" stroke-linecap="round" stroke-linejoin="round" d="
	M68,59.5c0-2.869,2.326-5.195,5.194-5.195c2.881,0,5.208,2.326,5.208,5.195c0,2.868-2.327,5.195-5.208,5.195
	C70.326,64.695,68,62.368,68,59.5z"/>
<path fill-rule="evenodd" clip-rule="evenodd" fill="#DF0040" stroke="#333333" stroke-linecap="round" stroke-linejoin="round" d="
	M34.299,6.195C34.299,3.327,36.638,1,39.507,1c2.868,0,5.194,2.327,5.194,5.195c0,2.88-2.326,5.208-5.194,5.208
	C36.638,11.403,34.299,9.076,34.299,6.195z"/>
<path fill-rule="evenodd" clip-rule="evenodd" fill="#DF0040" stroke="#333333" stroke-linecap="round" stroke-linejoin="round" d="
	M34.299,73.805c0-2.881,2.339-5.207,5.208-5.207c2.868,0,5.194,2.326,5.194,5.207c0,2.868-2.326,5.194-5.194,5.194
	C36.638,78.999,34.299,76.673,34.299,73.805z"/>
<line fill-rule="evenodd" clip-rule="evenodd" fill="none" stroke="#333333" stroke-linecap="square" stroke-linejoin="round" x1="9.008" y1="42.13" x2="68.099" y2="42.13"/>
<g>
	<g>
		<g>
			
				<path fill-rule="evenodd" clip-rule="evenodd" fill="none" stroke="#333333" stroke-linecap="square" stroke-linejoin="round" d="
				M11.778,41.12c6.118-46.263,11.806,0,11.806,0"/>
			
				<path fill-rule="evenodd" clip-rule="evenodd" fill="none" stroke="#333333" stroke-linecap="square" stroke-linejoin="round" d="
				M34.712,37.907c-6.119,46.263-11.794,0-11.794,0"/>
		</g>
		<g>
			
				<path fill-rule="evenodd" clip-rule="evenodd" fill="none" stroke="#333333" stroke-linecap="square" stroke-linejoin="round" d="
				M11.778,41.896c3.065-23.131,5.909,0,5.909,0"/>
			
				<path fill-rule="evenodd" clip-rule="evenodd" fill="none" stroke="#333333" stroke-linecap="square" stroke-linejoin="round" d="
				M23.251,40.283c-3.065,23.131-5.896,0-5.896,0"/>
		</g>
		<g>
			
				<path fill-rule="evenodd" clip-rule="evenodd" fill="none" stroke="#333333" stroke-linecap="square" stroke-linejoin="round" d="
				M34.712,40.283c-3.053,23.131-5.897,0-5.897,0"/>
			
				<path fill-rule="evenodd" clip-rule="evenodd" fill="none" stroke="#333333" stroke-linecap="square" stroke-linejoin="round" d="
				M23.251,41.896c3.053-23.131,5.897,0,5.897,0"/>
		</g>
	</g>
	<g>
		<g>
			
				<path fill-rule="evenodd" clip-rule="evenodd" fill="none" stroke="#333333" stroke-linecap="square" stroke-linejoin="round" d="
				M34.528,42.45c6.119-46.263,11.805,0,11.805,0"/>
			
				<path fill-rule="evenodd" clip-rule="evenodd" fill="none" stroke="#333333" stroke-linecap="square" stroke-linejoin="round" d="
				M57.463,39.237c-6.119,46.263-11.794,0-11.794,0"/>
		</g>
		<g>
			
				<path fill-rule="evenodd" clip-rule="evenodd" fill="none" stroke="#333333" stroke-linecap="square" stroke-linejoin="round" d="
				M34.528,43.226c3.065-23.132,5.909,0,5.909,0"/>
			
				<path fill-rule="evenodd" clip-rule="evenodd" fill="none" stroke="#333333" stroke-linecap="square" stroke-linejoin="round" d="
				M46.001,41.613c-3.065,23.131-5.897,0-5.897,0"/>
		</g>
		<g>
			
				<path fill-rule="evenodd" clip-rule="evenodd" fill="none" stroke="#333333" stroke-linecap="square" stroke-linejoin="round" d="
				M57.463,41.613c-3.054,23.131-5.898,0-5.898,0"/>
			
				<path fill-rule="evenodd" clip-rule="evenodd" fill="none" stroke="#333333" stroke-linecap="square" stroke-linejoin="round" d="
				M46.001,43.226c3.054-23.132,5.896,0,5.896,0"/>
		</g>
	</g>
</g>
<g>
	<g>
		<g>
			
				<path fill-rule="evenodd" clip-rule="evenodd" fill="none" stroke="#333333" stroke-linecap="square" stroke-linejoin="round" d="
				M17.687,41.12c6.119-46.263,11.806,0,11.806,0"/>
			
				<path fill-rule="evenodd" clip-rule="evenodd" fill="none" stroke="#333333" stroke-linecap="square" stroke-linejoin="round" d="
				M40.621,37.907c-6.118,46.263-11.793,0-11.793,0"/>
		</g>
		<g>
			
				<path fill-rule="evenodd" clip-rule="evenodd" fill="none" stroke="#333333" stroke-linecap="square" stroke-linejoin="round" d="
				M17.687,41.896c3.066-23.131,5.909,0,5.909,0"/>
			
				<path fill-rule="evenodd" clip-rule="evenodd" fill="none" stroke="#333333" stroke-linecap="square" stroke-linejoin="round" d="
				M29.16,40.283c-3.065,23.131-5.896,0-5.896,0"/>
		</g>
		<g>
			
				<path fill-rule="evenodd" clip-rule="evenodd" fill="none" stroke="#333333" stroke-linecap="square" stroke-linejoin="round" d="
				M40.621,40.283c-3.053,23.131-5.897,0-5.897,0"/>
			
				<path fill-rule="evenodd" clip-rule="evenodd" fill="none" stroke="#333333" stroke-linecap="square" stroke-linejoin="round" d="
				M29.16,41.896c3.053-23.131,5.897,0,5.897,0"/>
		</g>
	</g>
	<g>
		<g>
			
				<path fill-rule="evenodd" clip-rule="evenodd" fill="none" stroke="#333333" stroke-linecap="square" stroke-linejoin="round" d="
				M40.437,42.45c6.118-46.263,11.806,0,11.806,0"/>
			
				<path fill-rule="evenodd" clip-rule="evenodd" fill="none" stroke="#333333" stroke-linecap="square" stroke-linejoin="round" d="
				M63.37,39.237c-6.116,46.263-11.793,0-11.793,0"/>
		</g>
		<g>
			
				<path fill-rule="evenodd" clip-rule="evenodd" fill="none" stroke="#333333" stroke-linecap="square" stroke-linejoin="round" d="
				M40.437,43.226c3.066-23.132,5.908,0,5.908,0"/>
			
				<path fill-rule="evenodd" clip-rule="evenodd" fill="none" stroke="#333333" stroke-linecap="square" stroke-linejoin="round" d="
				M51.91,41.613c-3.064,23.131-5.897,0-5.897,0"/>
		</g>
		<g>
			
				<path fill-rule="evenodd" clip-rule="evenodd" fill="none" stroke="#333333" stroke-linecap="square" stroke-linejoin="round" d="
				M63.37,41.613c-3.052,23.131-5.896,0-5.896,0"/>
			
				<path fill-rule="evenodd" clip-rule="evenodd" fill="none" stroke="#333333" stroke-linecap="square" stroke-linejoin="round" d="
				M51.91,43.226c3.052-23.132,5.896,0,5.896,0"/>
		</g>
	</g>
</g>
</svg>
