<?xml version="1.0" encoding="utf-8"?>
<!-- Generator: Adobe Illustrator 13.0.0, SVG Export Plug-In . SVG Version: 6.00 Build 14576)  -->
<!DOCTYPE svg PUBLIC "-//W3C//DTD SVG 1.1//EN" "http://www.w3.org/Graphics/SVG/1.1/DTD/svg11.dtd">
<svg version="1.1" id="Layer_1" xmlns="http://www.w3.org/2000/svg" xmlns:xlink="http://www.w3.org/1999/xlink" x="0px" y="0px"
	 width="80px" height="80px" viewBox="0 0 80 80" enable-background="new 0 0 80 80" xml:space="preserve">
<path fill="#51A425" stroke="#333333" stroke-linecap="square" d="M5.221,13.415c0-3.891,5.639-8.679,10.206-8.679h48.479
	c4.568,0,10.207,4.789,10.207,8.679V45.62c0,16.188-15.414,29.312-34.446,29.312c-19.033,0-34.446-13.123-34.446-29.312V13.415z"/>
<line fill="none" stroke="#333333" stroke-linecap="round" stroke-linejoin="round" x1="18.862" y1="17.083" x2="18.862" y2="59.984"/>
<path fill="#F5D04E" stroke="#333333" stroke-linecap="round" stroke-linejoin="round" d="M10.417,5.818
	c0-2.758,2.326-4.985,5.195-4.985c2.88,0,5.207,2.228,5.207,4.985c0,2.745-2.327,4.986-5.207,4.986
	C12.743,10.804,10.417,8.563,10.417,5.818z"/>
<path fill="#F5D04E" stroke="#333333" stroke-linecap="round" stroke-linejoin="round" d="M26.015,5.818
	c0-2.758,2.326-4.985,5.207-4.985c2.868,0,5.195,2.228,5.195,4.985c0,2.745-2.327,4.986-5.195,4.986
	C28.34,10.804,26.015,8.563,26.015,5.818z"/>
<path fill="#F5D04E" stroke="#333333" stroke-linecap="round" stroke-linejoin="round" d="M42.917,5.818
	c0-2.758,2.326-4.985,5.194-4.985c2.881,0,5.207,2.228,5.207,4.985c0,2.745-2.326,4.986-5.207,4.986
	C45.243,10.804,42.917,8.563,42.917,5.818z"/>
<path fill="#F5D04E" stroke="#333333" stroke-linecap="round" stroke-linejoin="round" d="M59.818,5.818
	c0-2.758,2.328-4.985,5.195-4.985c2.869,0,5.209,2.228,5.209,4.985c0,2.745-2.34,4.986-5.209,4.986
	C62.146,10.804,59.818,8.563,59.818,5.818z"/>
<path fill="#DF3800" stroke="#333333" stroke-linecap="round" stroke-linejoin="round" d="M34.299,73.848
	c0-2.744,2.339-4.984,5.207-4.984c2.869,0,5.195,2.24,5.195,4.984c0,2.758-2.326,4.985-5.195,4.985
	C36.638,78.833,34.299,76.604,34.299,73.848z"/>
<line fill="none" stroke="#333333" stroke-linecap="round" stroke-linejoin="round" x1="19.014" y1="39.278" x2="65.82" y2="39.278"/>
<g>
	<g>
		<path fill-rule="evenodd" clip-rule="evenodd" fill="none" stroke="#000000" stroke-linecap="round" stroke-linejoin="round" d="
			M19.695,36.961c2.058-33.71,3.979,0,3.979,0"/>
		<path fill-rule="evenodd" clip-rule="evenodd" fill="none" stroke="#000000" stroke-linecap="round" stroke-linejoin="round" d="
			M27.407,34.635c-2.056,33.712-3.978,0-3.978,0"/>
	</g>
</g>
<g>
	<g>
		<path fill-rule="evenodd" clip-rule="evenodd" fill="none" stroke="#000000" stroke-linecap="round" stroke-linejoin="round" d="
			M41.56,40.429c2.058-33.737,3.95,0,3.95,0"/>
		<path fill-rule="evenodd" clip-rule="evenodd" fill="none" stroke="#000000" stroke-linecap="round" stroke-linejoin="round" d="
			M49.271,38.076c-2.057,33.735-3.979,0-3.979,0"/>
	</g>
</g>
<g>
	<g>
		<path fill-rule="evenodd" clip-rule="evenodd" fill="none" stroke="#000000" stroke-linecap="round" stroke-linejoin="round" d="
			M24.836,40.429c2.057-33.737,3.979,0,3.979,0"/>
		<path fill-rule="evenodd" clip-rule="evenodd" fill="none" stroke="#000000" stroke-linecap="round" stroke-linejoin="round" d="
			M32.548,38.076c-2.056,33.735-3.977,0-3.977,0"/>
	</g>
</g>
<g>
	<g>
		<path fill-rule="evenodd" clip-rule="evenodd" fill="none" stroke="#000000" stroke-linecap="round" stroke-linejoin="round" d="
			M49.271,38.123c2.056-33.734,3.977,0,3.977,0"/>
		<path fill-rule="evenodd" clip-rule="evenodd" fill="none" stroke="#000000" stroke-linecap="round" stroke-linejoin="round" d="
			M56.983,35.775c-2.057,33.735-3.978,0-3.978,0"/>
	</g>
</g>
<g>
	<g>
		<path fill-rule="evenodd" clip-rule="evenodd" fill="none" stroke="#000000" stroke-linecap="round" stroke-linejoin="round" d="
			M33.847,39.264c2.057-33.711,3.951,0,3.951,0"/>
		<path fill-rule="evenodd" clip-rule="evenodd" fill="none" stroke="#000000" stroke-linecap="round" stroke-linejoin="round" d="
			M41.56,36.938c-2.056,33.709-3.977,0-3.977,0"/>
	</g>
</g>
<g>
	<g>
		<path fill-rule="evenodd" clip-rule="evenodd" fill="none" stroke="#000000" stroke-linecap="round" stroke-linejoin="round" d="
			M26.135,36.499c2.057-20.235,3.952,0,3.952,0"/>
		<path fill-rule="evenodd" clip-rule="evenodd" fill="none" stroke="#000000" stroke-linecap="round" stroke-linejoin="round" d="
			M33.847,35.094c-2.056,20.238-3.977,0-3.977,0"/>
	</g>
</g>
<g>
	<g>
		<path fill-rule="evenodd" clip-rule="evenodd" fill="none" stroke="#000000" stroke-linecap="round" stroke-linejoin="round" d="
			M20.968,39.967c2.083-20.262,3.977,0,3.977,0"/>
		<path fill-rule="evenodd" clip-rule="evenodd" fill="none" stroke="#000000" stroke-linecap="round" stroke-linejoin="round" d="
			M28.706,38.561c-2.083,20.238-3.977,0-3.977,0"/>
	</g>
</g>
<g>
	<g>
		<path fill-rule="evenodd" clip-rule="evenodd" fill="none" stroke="#000000" stroke-linecap="round" stroke-linejoin="round" d="
			M40.261,42.27c2.058-20.262,3.979,0,3.979,0"/>
		<path fill-rule="evenodd" clip-rule="evenodd" fill="none" stroke="#000000" stroke-linecap="round" stroke-linejoin="round" d="
			M47.974,40.863c-2.058,20.236-3.951,0-3.951,0"/>
	</g>
</g>
<g>
	<g>
		<path fill-rule="evenodd" clip-rule="evenodd" fill="none" stroke="#000000" stroke-linecap="round" stroke-linejoin="round" d="
			M54.412,43.408c2.058-20.238,3.978,0,3.978,0"/>
		<path fill-rule="evenodd" clip-rule="evenodd" fill="none" stroke="#000000" stroke-linecap="round" stroke-linejoin="round" d="
			M62.126,42.002c-2.059,20.238-3.979,0-3.979,0"/>
	</g>
</g>
<g>
	<g>
		<path fill-rule="evenodd" clip-rule="evenodd" fill="none" stroke="#000000" stroke-linecap="round" stroke-linejoin="round" d="
			M35.12,46.875c2.055-20.237,3.977,0,3.977,0"/>
		<path fill-rule="evenodd" clip-rule="evenodd" fill="none" stroke="#000000" stroke-linecap="round" stroke-linejoin="round" d="
			M42.832,45.47c-2.057,20.235-3.951,0-3.951,0"/>
	</g>
</g>
<g>
	<g>
		<path fill-rule="evenodd" clip-rule="evenodd" fill="none" stroke="#000000" stroke-linecap="round" stroke-linejoin="round" d="
			M37.689,29.594c2.058-20.236,3.979,0,3.979,0"/>
		<path fill-rule="evenodd" clip-rule="evenodd" fill="none" stroke="#000000" stroke-linecap="round" stroke-linejoin="round" d="
			M45.402,28.188c-2.057,20.235-3.951,0-3.951,0"/>
	</g>
</g>
<g>
	<g>
		<path fill-rule="evenodd" clip-rule="evenodd" fill="none" stroke="#000000" stroke-linecap="round" stroke-linejoin="round" d="
			M53.113,34.199c2.083-20.236,3.979,0,3.979,0"/>
		<path fill-rule="evenodd" clip-rule="evenodd" fill="none" stroke="#000000" stroke-linecap="round" stroke-linejoin="round" d="
			M60.852,32.793c-2.081,20.235-3.977,0-3.977,0"/>
	</g>
</g>
<g>
	<g>
		<path fill-rule="evenodd" clip-rule="evenodd" fill="none" stroke="#000000" stroke-linecap="round" stroke-linejoin="round" d="
			M20.968,46.875c2.083-20.237,3.977,0,3.977,0"/>
		<path fill-rule="evenodd" clip-rule="evenodd" fill="none" stroke="#000000" stroke-linecap="round" stroke-linejoin="round" d="
			M28.706,45.47c-2.083,20.235-3.977,0-3.977,0"/>
	</g>
</g>
<g>
	<g>
		<path fill-rule="evenodd" clip-rule="evenodd" fill="none" stroke="#000000" stroke-linecap="round" stroke-linejoin="round" d="
			M38.988,48.012c2.057-20.236,3.951,0,3.951,0"/>
		<path fill-rule="evenodd" clip-rule="evenodd" fill="none" stroke="#000000" stroke-linecap="round" stroke-linejoin="round" d="
			M46.7,46.605c-2.057,20.238-3.978,0-3.978,0"/>
	</g>
</g>
<g>
	<g>
		<path fill-rule="evenodd" clip-rule="evenodd" fill="none" stroke="#000000" stroke-linecap="round" stroke-linejoin="round" d="
			M45.402,36.499c2.057-20.235,3.978,0,3.978,0"/>
		<path fill-rule="evenodd" clip-rule="evenodd" fill="none" stroke="#000000" stroke-linecap="round" stroke-linejoin="round" d="
			M53.113,35.094c-2.056,20.238-3.951,0-3.951,0"/>
	</g>
</g>
<g>
	<g>
		<path fill-rule="evenodd" clip-rule="evenodd" fill="none" stroke="#000000" stroke-linecap="round" stroke-linejoin="round" d="
			M29.978,32.77c2.056-12.142,3.977,0,3.977,0"/>
		<path fill-rule="evenodd" clip-rule="evenodd" fill="none" stroke="#000000" stroke-linecap="round" stroke-linejoin="round" d="
			M37.689,31.92c-2.056,12.144-3.977,0-3.977,0"/>
	</g>
</g>
<g>
	<g>
		<path fill-rule="evenodd" clip-rule="evenodd" fill="none" stroke="#000000" stroke-linecap="round" stroke-linejoin="round" d="
			M54.412,32.77c2.058-12.142,3.978,0,3.978,0"/>
		<path fill-rule="evenodd" clip-rule="evenodd" fill="none" stroke="#000000" stroke-linecap="round" stroke-linejoin="round" d="
			M62.126,31.92c-2.059,12.144-3.979,0-3.979,0"/>
	</g>
</g>
<g>
	<g>
		<path fill-rule="evenodd" clip-rule="evenodd" fill="none" stroke="#000000" stroke-linecap="round" stroke-linejoin="round" d="
			M33.847,39.676c2.057-12.142,3.951,0,3.951,0"/>
		<path fill-rule="evenodd" clip-rule="evenodd" fill="none" stroke="#000000" stroke-linecap="round" stroke-linejoin="round" d="
			M41.56,38.828c-2.056,12.142-3.977,0-3.977,0"/>
	</g>
</g>
<g>
	<g>
		<path fill-rule="evenodd" clip-rule="evenodd" fill="none" stroke="#000000" stroke-linecap="round" stroke-linejoin="round" d="
			M51.842,39.676c2.057-12.142,3.978,0,3.978,0"/>
		<path fill-rule="evenodd" clip-rule="evenodd" fill="none" stroke="#000000" stroke-linecap="round" stroke-linejoin="round" d="
			M59.553,38.828c-2.057,12.142-3.977,0-3.977,0"/>
	</g>
</g>
<g>
	<g>
		<path fill-rule="evenodd" clip-rule="evenodd" fill="none" stroke="#000000" stroke-linecap="round" stroke-linejoin="round" d="
			M37.689,40.816c2.058-12.144,3.979,0,3.979,0"/>
		<path fill-rule="evenodd" clip-rule="evenodd" fill="none" stroke="#000000" stroke-linecap="round" stroke-linejoin="round" d="
			M45.402,39.99c-2.057,12.144-3.951,0-3.951,0"/>
	</g>
</g>
<g>
	<g>
		<path fill-rule="evenodd" clip-rule="evenodd" fill="none" stroke="#000000" stroke-linecap="round" stroke-linejoin="round" d="
			M42.832,47.746c2.055-12.142,3.977,0,3.977,0"/>
		<path fill-rule="evenodd" clip-rule="evenodd" fill="none" stroke="#000000" stroke-linecap="round" stroke-linejoin="round" d="
			M50.542,46.899c-2.057,12.141-3.949,0-3.949,0"/>
	</g>
</g>
<g>
	<g>
		<path fill-rule="evenodd" clip-rule="evenodd" fill="none" stroke="#000000" stroke-linecap="round" stroke-linejoin="round" d="
			M40.261,36.04c2.058-7.271,3.979,0,3.979,0"/>
		<path fill-rule="evenodd" clip-rule="evenodd" fill="none" stroke="#000000" stroke-linecap="round" stroke-linejoin="round" d="
			M47.974,35.555c-2.058,7.271-3.951,0-3.951,0"/>
	</g>
</g>
<g>
	<g>
		<path fill-rule="evenodd" clip-rule="evenodd" fill="none" stroke="#000000" stroke-linecap="round" stroke-linejoin="round" d="
			M38.988,32.599c2.057-7.294,3.951,0,3.951,0"/>
		<path fill-rule="evenodd" clip-rule="evenodd" fill="none" stroke="#000000" stroke-linecap="round" stroke-linejoin="round" d="
			M46.7,32.09c-2.057,7.295-3.978,0-3.978,0"/>
	</g>
</g>
<g>
	<g>
		<path fill-rule="evenodd" clip-rule="evenodd" fill="none" stroke="#000000" stroke-linecap="round" stroke-linejoin="round" d="
			M47.974,35.943c2.056-4.362,3.977,0,3.977,0"/>
		<path fill-rule="evenodd" clip-rule="evenodd" fill="none" stroke="#000000" stroke-linecap="round" stroke-linejoin="round" d="
			M55.686,35.652c-2.059,4.364-3.951,0-3.951,0"/>
	</g>
</g>
<g>
	<g>
		<path fill-rule="evenodd" clip-rule="evenodd" fill="none" stroke="#000000" stroke-linecap="round" stroke-linejoin="round" d="
			M45.402,40.547c2.057-4.359,3.978,0,3.978,0"/>
		<path fill-rule="evenodd" clip-rule="evenodd" fill="none" stroke="#000000" stroke-linecap="round" stroke-linejoin="round" d="
			M53.113,40.258c-2.056,4.362-3.951,0-3.951,0"/>
	</g>
</g>
<g>
	<g>
		<path fill-rule="evenodd" clip-rule="evenodd" fill="none" stroke="#000000" stroke-linecap="round" stroke-linejoin="round" d="
			M56.983,35.894c2.057-2.642,3.978,0,3.978,0"/>
		<path fill-rule="evenodd" clip-rule="evenodd" fill="none" stroke="#000000" stroke-linecap="round" stroke-linejoin="round" d="
			M64.695,35.699c-2.057,2.618-3.978,0-3.978,0"/>
	</g>
</g>
</svg>
