<?xml version="1.0" encoding="utf-8"?>
<!-- Generator: Adobe Illustrator 13.0.0, SVG Export Plug-In . SVG Version: 6.00 Build 14576)  -->
<!DOCTYPE svg PUBLIC "-//W3C//DTD SVG 1.1//EN" "http://www.w3.org/Graphics/SVG/1.1/DTD/svg11.dtd">
<svg version="1.1" id="Layer_1" xmlns="http://www.w3.org/2000/svg" xmlns:xlink="http://www.w3.org/1999/xlink" x="0px" y="0px"
	 width="80px" height="80px" viewBox="0 0 80 80" enable-background="new 0 0 80 80" xml:space="preserve">
<g>
	<path fill="#3399FF" stroke="#333333" stroke-linecap="round" stroke-linejoin="round" d="M10.901,25.5c0-8.282,6.719-15,15-15h30
		c8.282,0,14.988,6.719,14.988,15v30.001c0,8.281-6.706,14.999-14.988,14.999h-30c-8.282,0-15-6.718-15-14.999V25.5z"/>
</g>
<line fill="none" stroke="#333333" stroke-linecap="square" stroke-linejoin="round" x1="17.915" y1="53.514" x2="57.852" y2="53.514"/>
<g>
	
		<path fill-rule="evenodd" clip-rule="evenodd" fill="none" stroke="#333333" stroke-width="2" stroke-linecap="round" stroke-linejoin="round" d="
		M19.588,54.376c4.095,0,3.258-24.79,6.252-23.952"/>
	
		<path fill-rule="evenodd" clip-rule="evenodd" fill="none" stroke="#333333" stroke-width="2" stroke-linecap="round" stroke-linejoin="round" d="
		M32.136,54.376c-4.117,0-3.258-24.79-6.251-23.952"/>
</g>
<g>
	
		<path fill-rule="evenodd" clip-rule="evenodd" fill="none" stroke="#333333" stroke-width="2" stroke-linecap="round" stroke-linejoin="round" d="
		M28.702,54.376c4.117,0,3.259-29.5,6.275-28.51"/>
	
		<path fill-rule="evenodd" clip-rule="evenodd" fill="none" stroke="#333333" stroke-width="2" stroke-linecap="round" stroke-linejoin="round" d="
		M41.275,54.376c-4.119,0-3.26-29.5-6.276-28.51"/>
</g>
<g>
	
		<path fill-rule="evenodd" clip-rule="evenodd" fill="none" stroke="#333333" stroke-width="2" stroke-linecap="round" stroke-linejoin="round" d="
		M37.839,54.376c4.116,0,3.26-16.511,6.273-15.96"/>
	
		<path fill-rule="evenodd" clip-rule="evenodd" fill="none" stroke="#333333" stroke-width="2" stroke-linecap="round" stroke-linejoin="round" d="
		M50.386,54.376c-4.094,0-3.256-16.511-6.25-15.96"/>
</g>
<g>
	
		<path fill-rule="evenodd" clip-rule="evenodd" fill="none" stroke="#333333" stroke-width="2" stroke-linecap="round" stroke-linejoin="round" d="
		M46.977,54.376c4.115,0,3.257-22.434,6.252-21.663"/>
	
		<path fill-rule="evenodd" clip-rule="evenodd" fill="none" stroke="#333333" stroke-width="2" stroke-linecap="round" stroke-linejoin="round" d="
		M59.523,54.376c-4.115,0-3.259-22.434-6.252-21.663"/>
</g>
</svg>
