<?xml version="1.0" encoding="utf-8"?>
<!-- Generator: Adobe Illustrator 13.0.0, SVG Export Plug-In . SVG Version: 6.00 Build 14576)  -->
<!DOCTYPE svg PUBLIC "-//W3C//DTD SVG 1.1//EN" "http://www.w3.org/Graphics/SVG/1.1/DTD/svg11.dtd">
<svg version="1.1" id="Layer_1" xmlns="http://www.w3.org/2000/svg" xmlns:xlink="http://www.w3.org/1999/xlink" x="0px" y="0px"
	 width="55px" height="55px" viewBox="0 0 55 55" enable-background="new 0 0 55 55" xml:space="preserve">
<path fill="#808284" stroke="#FFFFFF" stroke-linecap="square" d="M0.245,18.559c0-2.208,1.38-4,3.052-4h48.836
	c1.686,0,3.052,1.792,3.052,4c0,2.19-1.366,4-3.052,4H3.296C1.625,22.559,0.245,20.75,0.245,18.559z"/>
<path fill="#FFFFFF" d="M33.774,18.644c0,3.25-2.683,5.885-6.006,5.885c-3.31,0-5.995-2.635-5.995-5.885
	c0-3.262,2.685-5.897,5.995-5.897C31.092,12.747,33.774,15.381,33.774,18.644z"/>
<g>
	<path fill="#808284" stroke="#FFFFFF" stroke-linecap="square" d="M0.185,38.365c0-2.191,1.38-4,3.052-4h48.835
		c1.687,0,3.053,1.809,3.053,4c0,2.206-1.366,4-3.053,4H3.237C1.564,42.365,0.185,40.571,0.185,38.365z"/>
</g>
<path fill="#FFFFFF" d="M20.799,38.388c0,3.323-2.684,6.007-5.995,6.007c-3.322,0-6.005-2.685-6.005-6.007
	c0-3.31,2.684-5.993,6.005-5.993C18.115,32.395,20.799,35.078,20.799,38.388z"/>
</svg>
