<?xml version="1.0" encoding="utf-8"?>
<!-- Generator: Adobe Illustrator 13.0.0, SVG Export Plug-In . SVG Version: 6.00 Build 14576)  -->
<!DOCTYPE svg PUBLIC "-//W3C//DTD SVG 1.1//EN" "http://www.w3.org/Graphics/SVG/1.1/DTD/svg11.dtd">
<svg version="1.1" id="Layer_1" xmlns="http://www.w3.org/2000/svg" xmlns:xlink="http://www.w3.org/1999/xlink" x="0px" y="0px"
	 width="55px" height="55px" viewBox="0 0 55 55" enable-background="new 0 0 55 55" xml:space="preserve">
<path fill="#808284" stroke="#FFFFFF" stroke-linecap="square" d="M5.76,20.303c0-1.355,1.13-2.455,2.5-2.455h40
	c1.381,0,2.5,1.1,2.5,2.455c0,1.345-1.119,2.455-2.5,2.455h-40C6.89,22.758,5.76,21.648,5.76,20.303z"/>
<path fill="#FFFFFF" d="M33.43,20.303c0,2.798-2.31,5.066-5.17,5.066c-2.85,0-5.16-2.268-5.16-5.066c0-2.808,2.31-5.076,5.16-5.076
	C31.12,15.227,33.43,17.495,33.43,20.303z"/>
<g>
	<path fill="#808284" stroke="#FFFFFF" stroke-linecap="square" d="M5.76,35.188c0-1.346,1.13-2.455,2.5-2.455h40
		c1.381,0,2.5,1.109,2.5,2.455c0,1.354-1.119,2.454-2.5,2.454h-40C6.89,37.643,5.76,36.542,5.76,35.188z"/>
</g>
<path fill="#FFFFFF" d="M20.76,34.696c0,2.808-2.31,5.076-5.16,5.076c-2.859,0-5.169-2.269-5.169-5.076
	c0-2.797,2.31-5.066,5.169-5.066C18.45,29.63,20.76,31.899,20.76,34.696z"/>
</svg>
