<?xml version="1.0" encoding="utf-8"?>
<!-- Generator: Adobe Illustrator 13.0.0, SVG Export Plug-In . SVG Version: 6.00 Build 14576)  -->
<!DOCTYPE svg PUBLIC "-//W3C//DTD SVG 1.1//EN" "http://www.w3.org/Graphics/SVG/1.1/DTD/svg11.dtd">
<svg version="1.1" id="Layer_1" xmlns="http://www.w3.org/2000/svg" xmlns:xlink="http://www.w3.org/1999/xlink" x="0px" y="0px"
	 width="75px" height="75px" viewBox="0 0 46 25" enable-background="new 0 0 46 25" xml:space="preserve">
<path fill="#808284" stroke="#FFFFFF" stroke-linecap="square" d="M0.5,5.17c0-1.38,1.13-2.5,2.5-2.5h40c1.381,0,2.5,1.12,2.5,2.5
	c0,1.37-1.119,2.5-2.5,2.5H3C1.63,7.67,0.5,6.54,0.5,5.17z"/>
<path fill="#FFFFFF" d="M28.17,5.17c0,2.85-2.31,5.16-5.17,5.16c-2.85,0-5.16-2.31-5.16-5.16C17.84,2.31,20.15,0,23,0
	C25.86,0,28.17,2.31,28.17,5.17z"/>
<g>
	<path fill="#808284" stroke="#FFFFFF" stroke-linecap="square" d="M0.5,20.33c0-1.37,1.13-2.5,2.5-2.5h40c1.381,0,2.5,1.13,2.5,2.5
		c0,1.38-1.119,2.5-2.5,2.5H3C1.63,22.83,0.5,21.71,0.5,20.33z"/>
</g>
<path fill="#FFFFFF" d="M15.5,19.83c0,2.859-2.31,5.17-5.16,5.17c-2.86,0-5.17-2.311-5.17-5.17c0-2.85,2.31-5.16,5.17-5.16
	C13.19,14.67,15.5,16.98,15.5,19.83z"/>
</svg>
