<?xml version="1.0" encoding="utf-8"?>
<!-- Generator: Adobe Illustrator 13.0.0, SVG Export Plug-In . SVG Version: 6.00 Build 14576)  -->
<!DOCTYPE svg  PUBLIC '-//W3C//DTD SVG 1.1//EN'  'http://www.w3.org/Graphics/SVG/1.1/DTD/svg11.dtd' [
	<!ENTITY stroke_color "#010101">
	<!ENTITY fill_color "#FFFFFF">
]>

<svg enable-background="new 0 0 55 55" height="55px" version="1.1" viewBox="0 0 55 55" width="55px" x="0px" xml:space="preserve" xmlns="http://www.w3.org/2000/svg" xmlns:xlink="http://www.w3.org/1999/xlink" y="0px"><g display="block" id="activity-tamtamedit">


	
		<line id="line27" fill="none" stroke="&stroke_color;" stroke-width="3.5" stroke-linecap="round" stroke-linejoin="round" x1="35.104" y1="13.408" x2="49.751" y2="6.207"/>
	
		<line id="line29" fill="none" stroke="&stroke_color;" stroke-width="3.5" stroke-linecap="round" stroke-linejoin="round" x1="7.457" y1="2.472" x2="22.073" y2="9.739"/>
	<path id="path23" fill="&fill_color;" stroke="&stroke_color;" stroke-width="2.25" stroke-linecap="round" stroke-linejoin="round" d="
		M27.136,10.061c0.55,1.451-0.171,3.065-1.608,3.612c-1.437,0.545-3.049-0.188-3.599-1.64c-0.547-1.45,0.174-3.066,1.609-3.612
		C24.976,7.879,26.587,8.611,27.136,10.061z"/>
	<path id="path25" fill="&fill_color;" stroke="&stroke_color;" stroke-width="2.25" stroke-linecap="round" stroke-linejoin="round" d="
		M34.753,16.701c-1.04,1.125-2.798,1.189-3.928,0.145c-1.128-1.044-1.197-2.802-0.155-3.928c1.041-1.125,2.801-1.189,3.928-0.146
		C35.727,13.817,35.796,15.575,34.753,16.701z"/>
	<path id="path25_1_" stroke="&stroke_color;" stroke-linecap="round" stroke-linejoin="round" d="M15.108,45.857
		c1.04-1.125,2.798-1.188,3.928-0.145c1.128,1.044,1.197,2.801,0.155,3.928c-1.041,1.125-2.8,1.188-3.927,0.146
		C14.135,48.741,14.065,46.982,15.108,45.857z"/>
	<path id="path25_2_" stroke="&stroke_color;" stroke-linecap="round" stroke-linejoin="round" d="M23.503,36.754
		c1.04-1.125,2.798-1.189,3.928-0.146c1.127,1.045,1.197,2.802,0.155,3.929c-1.041,1.125-2.8,1.188-3.927,0.146
		C22.531,39.639,22.46,37.88,23.503,36.754z"/>
	<path id="path25_3_" stroke="&stroke_color;" stroke-linecap="round" stroke-linejoin="round" d="M35.003,43.087
		c1.04-1.125,2.798-1.188,3.929-0.146c1.127,1.043,1.196,2.802,0.154,3.927c-1.041,1.125-2.8,1.19-3.927,0.146
		C34.031,45.971,33.96,44.213,35.003,43.087z"/>
	
		<line fill="none" stroke="&stroke_color;" stroke-width="1.75" stroke-linecap="round" stroke-linejoin="round" x1="27.383" y1="26.363" x2="19.894" y2="29.447"/>
	
		<line fill="none" stroke="&stroke_color;" stroke-width="1.75" stroke-linecap="round" stroke-linejoin="round" x1="27.764" y1="24.613" x2="19.764" y2="27.697"/>
	
		<line fill="none" stroke="&stroke_color;" stroke-width="1.75" stroke-linecap="round" stroke-linejoin="round" x1="27.883" y1="25.197" x2="27.883" y2="39.195"/>
	
		<line fill="none" stroke="&stroke_color;" stroke-width="1.75" stroke-linecap="round" stroke-linejoin="round" x1="19.55" y1="28.197" x2="19.55" y2="47.195"/>
	
		<line fill="none" stroke="&stroke_color;" stroke-width="1.75" stroke-linecap="round" stroke-linejoin="round" x1="39.374" y1="44.176" x2="39.374" y2="28.176"/>
	
		<line fill="none" stroke="&stroke_color;" stroke-width="2" stroke-linecap="round" stroke-linejoin="round" x1="5.249" y1="47.751" x2="49.581" y2="47.751"/>
	
		<line fill="none" stroke="&stroke_color;" stroke-width="2" stroke-linecap="round" stroke-linejoin="round" x1="5.249" y1="41.751" x2="49.581" y2="41.751"/>
	
		<line fill="none" stroke="&stroke_color;" stroke-width="2" stroke-linecap="round" stroke-linejoin="round" x1="5.249" y1="35.751" x2="49.581" y2="35.751"/>
</g>
</svg>
