<?xml version="1.0" encoding="utf-8"?>
<!-- Generator: Adobe Illustrator 13.0.0, SVG Export Plug-In . SVG Version: 6.00 Build 14576)  -->
<!DOCTYPE svg PUBLIC "-//W3C//DTD SVG 1.1//EN" "http://www.w3.org/Graphics/SVG/1.1/DTD/svg11.dtd">
<svg version="1.1" id="Calque_1" xmlns="http://www.w3.org/2000/svg" xmlns:xlink="http://www.w3.org/1999/xlink" x="0px" y="0px"
	 width="45.794px" height="51.787px" viewBox="0 0 45.794 51.787" enable-background="new 0 0 45.794 51.787" xml:space="preserve">
<path fill-rule="evenodd" clip-rule="evenodd" fill="none" stroke="#000000" stroke-width="3.5" stroke-linecap="square" d="
	M6.25,21.996c0-1.772,2.62-3.958,4.74-3.958H33.51c2.12,0,4.74,2.187,4.74,3.958v14.678c0,7.385-7.161,13.364-16,13.364
	s-16-5.979-16-13.364V21.996z"/>
<g>
	<path fill-rule="evenodd" clip-rule="evenodd" fill="none" stroke="#000000" stroke-width="3" stroke-linecap="round" d="
		M13.462,34.086c4.741-19.554,9.149,0,9.149,0"/>
	
		<path fill-rule="evenodd" clip-rule="evenodd" fill="none" stroke="#000000" stroke-width="3" stroke-linecap="round" stroke-linejoin="round" d="
		M31.469,32.705c-4.741,19.555-9.148,0-9.148,0"/>
</g>
<line id="line27" fill="none" stroke="#010101" stroke-width="3.5" stroke-linecap="round" stroke-linejoin="round" x1="29.397" y1="12.686" x2="44.044" y2="5.485"/>
<line id="line29" fill="none" stroke="#010101" stroke-width="3.5" stroke-linecap="round" stroke-linejoin="round" x1="1.75" y1="1.75" x2="16.366" y2="9.017"/>
<path id="path23" fill="#FFFFFF" stroke="#010101" stroke-width="2.25" stroke-linecap="round" stroke-linejoin="round" d="
	M21.429,9.339c0.55,1.451-0.171,3.066-1.608,3.612c-1.437,0.545-3.049-0.188-3.599-1.639c-0.547-1.45,0.174-3.067,1.609-3.613
	C19.269,7.157,20.88,7.889,21.429,9.339z"/>
<path id="path25" fill="#FFFFFF" stroke="#010101" stroke-width="2.25" stroke-linecap="round" stroke-linejoin="round" d="
	M29.046,15.979c-1.04,1.125-2.798,1.189-3.928,0.144c-1.128-1.044-1.197-2.801-0.155-3.927c1.041-1.125,2.8-1.19,3.927-0.146
	C30.019,13.095,30.089,14.853,29.046,15.979z"/>
</svg>
