<?xml version="1.0" encoding="utf-8"?>
<!-- Generator: Adobe Illustrator 13.0.0, SVG Export Plug-In . SVG Version: 6.00 Build 14576)  -->
<!DOCTYPE svg PUBLIC "-//W3C//DTD SVG 1.1//EN" "http://www.w3.org/Graphics/SVG/1.1/DTD/svg11.dtd">
<svg version="1.1" id="Calque_1" xmlns="http://www.w3.org/2000/svg" xmlns:xlink="http://www.w3.org/1999/xlink" x="0px" y="0px"
	 width="48.5px" height="51.725px" viewBox="0 0 48.5 51.725" enable-background="new 0 0 48.5 51.725" xml:space="preserve">
<line id="line27" fill="none" stroke="#010101" stroke-width="3.5" stroke-linecap="round" stroke-linejoin="round" x1="31.272" y1="12.686" x2="45.919" y2="5.485"/>
<line id="line29" fill="none" stroke="#010101" stroke-width="3.5" stroke-linecap="round" stroke-linejoin="round" x1="3.625" y1="1.75" x2="18.241" y2="9.017"/>
<path id="path23" fill="#FFFFFF" stroke="#010101" stroke-width="2.25" stroke-linecap="round" stroke-linejoin="round" d="
	M23.304,9.339c0.55,1.451-0.171,3.066-1.608,3.612c-1.437,0.545-3.049-0.188-3.599-1.639c-0.547-1.45,0.174-3.067,1.609-3.613
	C21.144,7.157,22.755,7.889,23.304,9.339z"/>
<path id="path25" fill="#FFFFFF" stroke="#010101" stroke-width="2.25" stroke-linecap="round" stroke-linejoin="round" d="
	M30.921,15.979c-1.04,1.125-2.798,1.189-3.928,0.144c-1.128-1.044-1.197-2.801-0.155-3.927c1.041-1.125,2.8-1.19,3.927-0.146
	C31.894,13.095,31.964,14.853,30.921,15.979z"/>
<path id="path25_1_" stroke="#010101" stroke-linecap="round" stroke-linejoin="round" d="M11.276,39.136
	c1.04-1.125,2.798-1.189,3.928-0.144c1.128,1.044,1.197,2.801,0.155,3.927c-1.041,1.125-2.8,1.19-3.927,0.146
	C10.303,42.02,10.233,40.262,11.276,39.136z"/>
<path id="path25_2_" stroke="#010101" stroke-linecap="round" stroke-linejoin="round" d="M19.671,36.032
	c1.04-1.125,2.798-1.189,3.928-0.144c1.128,1.044,1.197,2.801,0.155,3.927c-1.041,1.125-2.8,1.19-3.927,0.146
	C18.699,38.916,18.628,37.158,19.671,36.032z"/>
<path id="path25_3_" stroke="#010101" stroke-linecap="round" stroke-linejoin="round" d="M31.171,38.365
	c1.04-1.125,2.798-1.189,3.928-0.144c1.128,1.044,1.197,2.801,0.155,3.927c-1.041,1.125-2.8,1.19-3.927,0.146
	C30.199,41.249,30.128,39.491,31.171,38.365z"/>
<rect x="1.75" y="17.975" fill-rule="evenodd" clip-rule="evenodd" fill="none" stroke="#000000" stroke-width="3.5" stroke-linecap="round" stroke-linejoin="bevel" width="45" height="32"/>
<line fill="none" stroke="#000000" stroke-width="1.75" stroke-linecap="round" stroke-linejoin="round" x1="23.551" y1="24.641" x2="16.062" y2="27.725"/>
<line fill="none" stroke="#000000" stroke-width="1.75" stroke-linecap="round" stroke-linejoin="round" x1="23.932" y1="22.891" x2="15.932" y2="25.975"/>
<line fill="none" stroke="#000000" stroke-width="1.75" stroke-linecap="round" stroke-linejoin="round" x1="24.051" y1="23.475" x2="24.051" y2="37.475"/>
<line fill="none" stroke="#000000" stroke-width="1.75" stroke-linecap="round" stroke-linejoin="round" x1="15.718" y1="25.975" x2="15.718" y2="39.975"/>
<line fill="none" stroke="#010101" stroke-width="1.75" stroke-linecap="round" stroke-linejoin="round" x1="35.542" y1="39.454" x2="35.542" y2="23.454"/>
</svg>
