<?xml version="1.0" encoding="utf-8"?>
<!-- Generator: Adobe Illustrator 13.0.0, SVG Export Plug-In . SVG Version: 6.00 Build 14576)  -->
<!DOCTYPE svg  PUBLIC '-//W3C//DTD SVG 1.1//EN'  'http://www.w3.org/Graphics/SVG/1.1/DTD/svg11.dtd' [
	<!ENTITY stroke_color "#010101">
	<!ENTITY fill_color "#FFFFFF">
]>
<svg version="1.1" id="Layer_1" xmlns="http://www.w3.org/2000/svg" xmlns:xlink="http://www.w3.org/1999/xlink" x="0px" y="0px"
	 width="55px" height="55px" viewBox="0 0 55 55" enable-background="new 0 0 55 55" xml:space="preserve">
<g id="activity-tamtamsynth">
	<path fill="none" stroke="&stroke_color;" stroke-width="3.5" stroke-linecap="square" d="M10.854,23.602
		c0-1.772,2.62-3.958,4.74-3.958h22.52c2.119,0,4.74,2.187,4.74,3.958v14.677c0,7.387-7.162,13.365-16,13.365
		c-8.839,0-16-5.98-16-13.365V23.602z"/>
	<g>
		<path fill="none" stroke="&stroke_color;" stroke-width="3" stroke-linecap="round" d="M18.065,35.691c4.741-19.553,9.149,0,9.149,0"/>
		<path fill="none" stroke="&stroke_color;" stroke-width="3" stroke-linecap="round" stroke-linejoin="round" d="M36.072,34.311
			c-4.74,19.555-9.148,0-9.148,0"/>
	</g>
	
		<line id="line27" fill="none" stroke="&stroke_color;" stroke-width="3.5" stroke-linecap="round" stroke-linejoin="round" x1="34" y1="14.292" x2="48.646" y2="7.091"/>
	
		<line id="line29" fill="none" stroke="&stroke_color;" stroke-width="3.5" stroke-linecap="round" stroke-linejoin="round" x1="6.354" y1="3.356" x2="20.97" y2="10.623"/>
	<path id="path23" fill="none" stroke="&stroke_color;" stroke-width="2.25" stroke-linecap="round" stroke-linejoin="round" d="
		M26.033,10.945c0.55,1.451-0.171,3.066-1.608,3.612c-1.437,0.545-3.049-0.188-3.599-1.639c-0.547-1.45,0.174-3.067,1.609-3.613
		C23.873,8.763,25.483,9.495,26.033,10.945z"/>
	<path id="path25" fill="none" stroke="&stroke_color;" stroke-width="2.25" stroke-linecap="round" stroke-linejoin="round" d="
		M33.648,17.585c-1.039,1.125-2.797,1.189-3.928,0.144c-1.127-1.044-1.197-2.801-0.154-3.927c1.041-1.125,2.801-1.19,3.928-0.146
		C34.623,14.701,34.691,16.459,33.648,17.585z"/>
</g>
</svg>
